<mxfile host="app.diagrams.net" modified="2023-12-19T11:14:09.980Z" agent="Mozilla/5.0 (Windows NT 10.0; Win64; x64) AppleWebKit/537.36 (KHTML, like Gecko) Chrome/112.0.0.0 Safari/537.36" etag="zP7WQGgdZq6R1DD7vlS3" version="22.1.11" type="github">
  <diagram name="第 1 页" id="_Q3zmUKFWoCNGSlm7mwf">
    <mxGraphModel dx="4097" dy="2114" grid="1" gridSize="10" guides="1" tooltips="1" connect="1" arrows="1" fold="1" page="1" pageScale="1" pageWidth="827" pageHeight="1169" math="1" shadow="0">
      <root>
        <mxCell id="0" />
        <mxCell id="1" parent="0" />
        <mxCell id="9l6tXo_ypLGHm5UJ6JUw-1" value="&lt;div style=&quot;line-height: 0%;&quot;&gt;&lt;span style=&quot;background-color: initial;&quot;&gt;&lt;font style=&quot;font-size: 15px;&quot;&gt;$$r_{4}$$&lt;/font&gt;&lt;/span&gt;&lt;/div&gt;" style="text;html=1;align=right;verticalAlign=middle;resizable=0;points=[];autosize=1;strokeColor=none;fillColor=none;" vertex="1" parent="1">
          <mxGeometry x="405" y="863.6199999999999" width="90" height="10" as="geometry" />
        </mxCell>
        <mxCell id="9l6tXo_ypLGHm5UJ6JUw-2" value="&lt;font face=&quot;Times New Roman&quot;&gt;&lt;span style=&quot;font-size: 13px;&quot;&gt;&lt;b&gt;有向信息&lt;/b&gt;&lt;/span&gt;&lt;/font&gt;" style="text;html=1;align=center;verticalAlign=middle;resizable=0;points=[];autosize=1;strokeColor=none;fillColor=none;" vertex="1" parent="1">
          <mxGeometry x="881" y="960.1199999999999" width="80" height="30" as="geometry" />
        </mxCell>
        <mxCell id="9l6tXo_ypLGHm5UJ6JUw-3" value="&lt;div style=&quot;line-height: 0%;&quot;&gt;&lt;font style=&quot;font-size: 15px;&quot; face=&quot;Times New Roman&quot;&gt;&lt;b&gt;$$H_{i \in \mathcal{E}_{e,rf}}^{(l)}$$&lt;/b&gt;&lt;/font&gt;&lt;br&gt;&lt;/div&gt;" style="text;html=1;align=right;verticalAlign=middle;resizable=0;points=[];autosize=1;strokeColor=none;fillColor=none;" vertex="1" parent="1">
          <mxGeometry x="667.8599999999997" y="791.1199999999999" width="270" height="10" as="geometry" />
        </mxCell>
        <mxCell id="9l6tXo_ypLGHm5UJ6JUw-4" value="&lt;div style=&quot;line-height: 0%;&quot;&gt;&lt;span style=&quot;background-color: initial;&quot;&gt;&lt;font style=&quot;font-size: 15px;&quot;&gt;$$e_{2}$$&lt;/font&gt;&lt;/span&gt;&lt;/div&gt;" style="text;html=1;align=right;verticalAlign=middle;resizable=0;points=[];autosize=1;strokeColor=none;fillColor=none;" vertex="1" parent="1">
          <mxGeometry x="565" y="777.6199999999999" width="90" height="10" as="geometry" />
        </mxCell>
        <mxCell id="9l6tXo_ypLGHm5UJ6JUw-5" value="&lt;div style=&quot;line-height: 0%;&quot;&gt;&lt;span style=&quot;background-color: initial;&quot;&gt;&lt;font style=&quot;font-size: 15px;&quot;&gt;$$e_{4}$$&lt;/font&gt;&lt;/span&gt;&lt;/div&gt;" style="text;html=1;align=right;verticalAlign=middle;resizable=0;points=[];autosize=1;strokeColor=none;fillColor=none;" vertex="1" parent="1">
          <mxGeometry x="589.5" y="924.6199999999999" width="90" height="10" as="geometry" />
        </mxCell>
        <mxCell id="9l6tXo_ypLGHm5UJ6JUw-6" value="" style="rounded=1;whiteSpace=wrap;html=1;fillColor=none;strokeColor=#330000;" vertex="1" parent="1">
          <mxGeometry x="1389.41" y="718.1199999999999" width="160.59" height="250" as="geometry" />
        </mxCell>
        <mxCell id="9l6tXo_ypLGHm5UJ6JUw-7" value="" style="ellipse;whiteSpace=wrap;html=1;aspect=fixed;fillColor=#f8cecc;strokeColor=#b85450;rounded=1;shadow=0;" vertex="1" parent="1">
          <mxGeometry x="700" y="842.6199999999999" width="20" height="20" as="geometry" />
        </mxCell>
        <mxCell id="9l6tXo_ypLGHm5UJ6JUw-8" value="" style="ellipse;whiteSpace=wrap;html=1;aspect=fixed;fillColor=#dae8fc;strokeColor=#6c8ebf;rounded=1;shadow=0;" vertex="1" parent="1">
          <mxGeometry x="660" y="782.1199999999999" width="20" height="20" as="geometry" />
        </mxCell>
        <mxCell id="9l6tXo_ypLGHm5UJ6JUw-9" value="" style="ellipse;whiteSpace=wrap;html=1;aspect=fixed;fillColor=#f8cecc;strokeColor=#b85450;rounded=1;shadow=0;" vertex="1" parent="1">
          <mxGeometry x="620" y="840.1199999999999" width="20" height="20" as="geometry" />
        </mxCell>
        <mxCell id="9l6tXo_ypLGHm5UJ6JUw-10" value="" style="ellipse;whiteSpace=wrap;html=1;aspect=fixed;fillColor=#dae8fc;strokeColor=#6c8ebf;rounded=1;shadow=0;" vertex="1" parent="1">
          <mxGeometry x="740" y="784.6199999999999" width="20" height="20" as="geometry" />
        </mxCell>
        <mxCell id="9l6tXo_ypLGHm5UJ6JUw-11" value="" style="ellipse;whiteSpace=wrap;html=1;aspect=fixed;fillColor=#f8cecc;strokeColor=#b85450;rounded=1;shadow=0;" vertex="1" parent="1">
          <mxGeometry x="780" y="842.6199999999999" width="20" height="20" as="geometry" />
        </mxCell>
        <mxCell id="9l6tXo_ypLGHm5UJ6JUw-12" value="" style="ellipse;whiteSpace=wrap;html=1;aspect=fixed;fillColor=#dae8fc;strokeColor=#6c8ebf;rounded=1;shadow=0;" vertex="1" parent="1">
          <mxGeometry x="660" y="902.1199999999999" width="20" height="20" as="geometry" />
        </mxCell>
        <mxCell id="9l6tXo_ypLGHm5UJ6JUw-13" value="" style="ellipse;whiteSpace=wrap;html=1;aspect=fixed;fillColor=#dae8fc;strokeColor=#6c8ebf;rounded=1;shadow=0;" vertex="1" parent="1">
          <mxGeometry x="740" y="902.1199999999999" width="20" height="20" as="geometry" />
        </mxCell>
        <mxCell id="9l6tXo_ypLGHm5UJ6JUw-14" value="" style="endArrow=classic;html=1;rounded=0;exitX=1;exitY=0;exitDx=0;exitDy=0;entryX=0.081;entryY=0.714;entryDx=0;entryDy=0;entryPerimeter=0;" edge="1" source="9l6tXo_ypLGHm5UJ6JUw-9" target="9l6tXo_ypLGHm5UJ6JUw-8" parent="1">
          <mxGeometry width="50" height="50" relative="1" as="geometry">
            <mxPoint x="610" y="847.1199999999999" as="sourcePoint" />
            <mxPoint x="660" y="797.1199999999999" as="targetPoint" />
          </mxGeometry>
        </mxCell>
        <mxCell id="9l6tXo_ypLGHm5UJ6JUw-15" value="" style="endArrow=classic;html=1;rounded=0;exitX=1;exitY=1;exitDx=0;exitDy=0;entryX=0;entryY=0;entryDx=0;entryDy=0;" edge="1" source="9l6tXo_ypLGHm5UJ6JUw-8" target="9l6tXo_ypLGHm5UJ6JUw-7" parent="1">
          <mxGeometry width="50" height="50" relative="1" as="geometry">
            <mxPoint x="890" y="742.1199999999999" as="sourcePoint" />
            <mxPoint x="915" y="695.1199999999999" as="targetPoint" />
          </mxGeometry>
        </mxCell>
        <mxCell id="9l6tXo_ypLGHm5UJ6JUw-16" value="" style="endArrow=classic;html=1;rounded=0;exitX=0.779;exitY=0.093;exitDx=0;exitDy=0;exitPerimeter=0;entryX=0;entryY=1;entryDx=0;entryDy=0;" edge="1" source="9l6tXo_ypLGHm5UJ6JUw-7" target="9l6tXo_ypLGHm5UJ6JUw-10" parent="1">
          <mxGeometry width="50" height="50" relative="1" as="geometry">
            <mxPoint x="715" y="845.1199999999999" as="sourcePoint" />
            <mxPoint x="740" y="808.1199999999999" as="targetPoint" />
          </mxGeometry>
        </mxCell>
        <mxCell id="9l6tXo_ypLGHm5UJ6JUw-17" value="" style="endArrow=classic;html=1;rounded=0;exitX=1;exitY=1;exitDx=0;exitDy=0;entryX=0;entryY=0;entryDx=0;entryDy=0;" edge="1" source="9l6tXo_ypLGHm5UJ6JUw-10" target="9l6tXo_ypLGHm5UJ6JUw-11" parent="1">
          <mxGeometry width="50" height="50" relative="1" as="geometry">
            <mxPoint x="757.0710678118658" y="804.621067811865" as="sourcePoint" />
            <mxPoint x="780" y="845.0500000000002" as="targetPoint" />
          </mxGeometry>
        </mxCell>
        <mxCell id="9l6tXo_ypLGHm5UJ6JUw-18" value="" style="endArrow=classic;html=1;rounded=0;entryX=0;entryY=0.5;entryDx=0;entryDy=0;exitX=1;exitY=0.5;exitDx=0;exitDy=0;" edge="1" source="9l6tXo_ypLGHm5UJ6JUw-9" target="9l6tXo_ypLGHm5UJ6JUw-7" parent="1">
          <mxGeometry width="50" height="50" relative="1" as="geometry">
            <mxPoint x="550" y="892.1199999999999" as="sourcePoint" />
            <mxPoint x="600" y="842.1199999999999" as="targetPoint" />
          </mxGeometry>
        </mxCell>
        <mxCell id="9l6tXo_ypLGHm5UJ6JUw-19" value="" style="endArrow=classic;html=1;rounded=0;exitX=1;exitY=0.5;exitDx=0;exitDy=0;" edge="1" source="9l6tXo_ypLGHm5UJ6JUw-7" parent="1">
          <mxGeometry width="50" height="50" relative="1" as="geometry">
            <mxPoint x="960" y="872.1199999999999" as="sourcePoint" />
            <mxPoint x="780" y="853.1199999999999" as="targetPoint" />
            <Array as="points">
              <mxPoint x="750" y="853.1199999999999" />
            </Array>
          </mxGeometry>
        </mxCell>
        <mxCell id="9l6tXo_ypLGHm5UJ6JUw-20" value="" style="endArrow=classic;html=1;rounded=0;entryX=0;entryY=0;entryDx=0;entryDy=0;exitX=1;exitY=1;exitDx=0;exitDy=0;" edge="1" source="9l6tXo_ypLGHm5UJ6JUw-9" target="9l6tXo_ypLGHm5UJ6JUw-12" parent="1">
          <mxGeometry width="50" height="50" relative="1" as="geometry">
            <mxPoint x="750" y="1052.12" as="sourcePoint" />
            <mxPoint x="800" y="1052.12" as="targetPoint" />
          </mxGeometry>
        </mxCell>
        <mxCell id="9l6tXo_ypLGHm5UJ6JUw-21" value="" style="endArrow=classic;html=1;rounded=0;entryX=0.5;entryY=1;entryDx=0;entryDy=0;exitX=1;exitY=0;exitDx=0;exitDy=0;" edge="1" source="9l6tXo_ypLGHm5UJ6JUw-12" parent="1">
          <mxGeometry width="50" height="50" relative="1" as="geometry">
            <mxPoint x="670.0010678118656" y="902.6189321881347" as="sourcePoint" />
            <mxPoint x="702.9300000000003" y="860.1899999999996" as="targetPoint" />
          </mxGeometry>
        </mxCell>
        <mxCell id="9l6tXo_ypLGHm5UJ6JUw-22" value="" style="endArrow=classic;html=1;rounded=0;entryX=1;entryY=1;entryDx=0;entryDy=0;exitX=0;exitY=0;exitDx=0;exitDy=0;" edge="1" source="9l6tXo_ypLGHm5UJ6JUw-13" target="9l6tXo_ypLGHm5UJ6JUw-7" parent="1">
          <mxGeometry width="50" height="50" relative="1" as="geometry">
            <mxPoint x="740" y="902.6199999999999" as="sourcePoint" />
            <mxPoint x="790" y="902.6199999999999" as="targetPoint" />
          </mxGeometry>
        </mxCell>
        <mxCell id="9l6tXo_ypLGHm5UJ6JUw-23" value="" style="endArrow=classic;html=1;rounded=0;exitX=1;exitY=0;exitDx=0;exitDy=0;entryX=0;entryY=1;entryDx=0;entryDy=0;" edge="1" source="9l6tXo_ypLGHm5UJ6JUw-13" target="9l6tXo_ypLGHm5UJ6JUw-11" parent="1">
          <mxGeometry width="50" height="50" relative="1" as="geometry">
            <mxPoint x="850" y="942.1199999999999" as="sourcePoint" />
            <mxPoint x="784" y="865.1199999999999" as="targetPoint" />
          </mxGeometry>
        </mxCell>
        <mxCell id="9l6tXo_ypLGHm5UJ6JUw-24" value="&lt;div style=&quot;line-height: 0%;&quot;&gt;&lt;span style=&quot;background-color: initial;&quot;&gt;&lt;font style=&quot;font-size: 15px;&quot;&gt;$$e_{8}$$&lt;/font&gt;&lt;/span&gt;&lt;/div&gt;" style="text;html=1;align=right;verticalAlign=middle;resizable=0;points=[];autosize=1;strokeColor=none;fillColor=none;" vertex="1" parent="1">
          <mxGeometry x="670" y="924.6199999999999" width="90" height="10" as="geometry" />
        </mxCell>
        <mxCell id="9l6tXo_ypLGHm5UJ6JUw-25" value="&lt;div style=&quot;line-height: 10%;&quot;&gt;&lt;span style=&quot;background-color: initial;&quot;&gt;&lt;font style=&quot;font-size: 15px;&quot;&gt;$$r_{2}$$&lt;/font&gt;&lt;/span&gt;&lt;/div&gt;" style="text;html=1;align=right;verticalAlign=middle;resizable=0;points=[];autosize=1;strokeColor=none;fillColor=none;" vertex="1" parent="1">
          <mxGeometry x="630" y="822.6199999999999" width="90" height="20" as="geometry" />
        </mxCell>
        <mxCell id="9l6tXo_ypLGHm5UJ6JUw-26" value="&lt;div style=&quot;line-height: 10%;&quot;&gt;&lt;span style=&quot;background-color: initial;&quot;&gt;&lt;font style=&quot;font-size: 15px;&quot;&gt;$$r_{3}$$&lt;/font&gt;&lt;/span&gt;&lt;/div&gt;" style="text;html=1;align=right;verticalAlign=middle;resizable=0;points=[];autosize=1;strokeColor=none;fillColor=none;" vertex="1" parent="1">
          <mxGeometry x="710" y="822.6199999999999" width="90" height="20" as="geometry" />
        </mxCell>
        <mxCell id="9l6tXo_ypLGHm5UJ6JUw-27" value="&lt;div style=&quot;line-height: 0%;&quot;&gt;&lt;span style=&quot;background-color: initial;&quot;&gt;&lt;font style=&quot;font-size: 15px;&quot;&gt;$$e_{6}$$&lt;/font&gt;&lt;/span&gt;&lt;/div&gt;" style="text;html=1;align=right;verticalAlign=middle;resizable=0;points=[];autosize=1;strokeColor=none;fillColor=none;" vertex="1" parent="1">
          <mxGeometry x="694" y="778.1199999999999" width="90" height="10" as="geometry" />
        </mxCell>
        <mxCell id="9l6tXo_ypLGHm5UJ6JUw-28" value="&lt;div style=&quot;line-height: 10%;&quot;&gt;&lt;span style=&quot;background-color: initial;&quot;&gt;&lt;font style=&quot;font-size: 15px;&quot;&gt;$$r_{1}$$&lt;/font&gt;&lt;/span&gt;&lt;/div&gt;" style="text;html=1;align=right;verticalAlign=middle;resizable=0;points=[];autosize=1;strokeColor=none;fillColor=none;" vertex="1" parent="1">
          <mxGeometry x="531" y="828.1199999999999" width="90" height="20" as="geometry" />
        </mxCell>
        <mxCell id="9l6tXo_ypLGHm5UJ6JUw-29" value="" style="rounded=1;whiteSpace=wrap;html=1;fillColor=none;strokeColor=#050505;" vertex="1" parent="1">
          <mxGeometry x="1009" y="728.1199999999999" width="160" height="260" as="geometry" />
        </mxCell>
        <mxCell id="9l6tXo_ypLGHm5UJ6JUw-30" value="" style="rounded=1;whiteSpace=wrap;html=1;fillColor=none;dashed=1;" vertex="1" parent="1">
          <mxGeometry x="1209" y="858.1199999999999" width="100" height="117.25" as="geometry" />
        </mxCell>
        <mxCell id="9l6tXo_ypLGHm5UJ6JUw-31" value="" style="rounded=1;whiteSpace=wrap;html=1;fillColor=none;dashed=1;" vertex="1" parent="1">
          <mxGeometry x="1210" y="722.6199999999999" width="99" height="120" as="geometry" />
        </mxCell>
        <mxCell id="9l6tXo_ypLGHm5UJ6JUw-32" value="" style="rounded=1;whiteSpace=wrap;html=1;fillColor=none;dashed=1;" vertex="1" parent="1">
          <mxGeometry x="868.6799999999998" y="706.6199999999999" width="99" height="281.5" as="geometry" />
        </mxCell>
        <mxCell id="9l6tXo_ypLGHm5UJ6JUw-33" value="&lt;font face=&quot;Times New Roman&quot;&gt;&lt;span style=&quot;font-size: 26px;&quot;&gt;&lt;b&gt;有向图&lt;br&gt;Transformer&lt;br&gt;编码器&lt;/b&gt;&lt;/span&gt;&lt;/font&gt;" style="text;html=1;align=center;verticalAlign=middle;resizable=0;points=[];autosize=1;strokeColor=none;fillColor=none;" vertex="1" parent="1">
          <mxGeometry x="1003.9999999999986" y="797.6199999999999" width="170" height="110" as="geometry" />
        </mxCell>
        <mxCell id="9l6tXo_ypLGHm5UJ6JUw-34" value="&lt;font face=&quot;Times New Roman&quot;&gt;&lt;span style=&quot;font-size: 28px;&quot;&gt;&lt;b&gt;解码器&lt;/b&gt;&lt;/span&gt;&lt;/font&gt;" style="text;html=1;align=center;verticalAlign=middle;resizable=0;points=[];autosize=1;strokeColor=none;fillColor=none;" vertex="1" parent="1">
          <mxGeometry x="1417.9999999999984" y="825.1199999999999" width="110" height="50" as="geometry" />
        </mxCell>
        <mxCell id="9l6tXo_ypLGHm5UJ6JUw-35" value="&lt;div style=&quot;line-height: 0%;&quot;&gt;&lt;font style=&quot;font-size: 15px;&quot; face=&quot;Times New Roman&quot;&gt;&lt;b&gt;$$H_{i \in \mathcal{E}_{r,rf}}^{(l)}$$&lt;/b&gt;&lt;/font&gt;&lt;br&gt;&lt;/div&gt;" style="text;html=1;align=right;verticalAlign=middle;resizable=0;points=[];autosize=1;strokeColor=none;fillColor=none;" vertex="1" parent="1">
          <mxGeometry x="674" y="888.6199999999999" width="270" height="10" as="geometry" />
        </mxCell>
        <mxCell id="9l6tXo_ypLGHm5UJ6JUw-36" value="&lt;font style=&quot;font-size: 18px;&quot;&gt;$$H_{i \in \varepsilon_{r,r f}}^{\prime(l)}$$&lt;/font&gt;" style="text;html=1;align=center;verticalAlign=middle;resizable=0;points=[];autosize=1;strokeColor=none;fillColor=none;" vertex="1" parent="1">
          <mxGeometry x="1084" y="935.3699999999999" width="350" height="40" as="geometry" />
        </mxCell>
        <mxCell id="9l6tXo_ypLGHm5UJ6JUw-37" value="&lt;font style=&quot;font-size: 18px;&quot;&gt;$$H_{i \in \varepsilon_{e,rf}}^{\prime(l)}$$&lt;/font&gt;" style="text;html=1;align=center;verticalAlign=middle;resizable=0;points=[];autosize=1;strokeColor=none;fillColor=none;" vertex="1" parent="1">
          <mxGeometry x="1085" y="726.1199999999999" width="350" height="40" as="geometry" />
        </mxCell>
        <mxCell id="9l6tXo_ypLGHm5UJ6JUw-38" value="&lt;font style=&quot;font-size: 22px;&quot;&gt;$$\mathcal{G}_{r f}$$&lt;/font&gt;" style="text;html=1;align=center;verticalAlign=middle;resizable=0;points=[];autosize=1;strokeColor=none;fillColor=none;" vertex="1" parent="1">
          <mxGeometry x="671.4099999999999" y="735.6199999999999" width="230" height="40" as="geometry" />
        </mxCell>
        <mxCell id="9l6tXo_ypLGHm5UJ6JUw-39" value="" style="rounded=1;whiteSpace=wrap;html=1;movable=1;resizable=1;rotatable=1;deletable=1;editable=1;locked=0;connectable=1;dashed=1;fillColor=none;strokeWidth=2;" vertex="1" parent="1">
          <mxGeometry x="82" y="519.6199999999999" width="210" height="354.5" as="geometry" />
        </mxCell>
        <mxCell id="9l6tXo_ypLGHm5UJ6JUw-40" value="" style="ellipse;whiteSpace=wrap;html=1;aspect=fixed;fillColor=#dae8fc;strokeColor=#6c8ebf;rounded=1;shadow=0;" vertex="1" parent="1">
          <mxGeometry x="250" y="628.1199999999999" width="20" height="20" as="geometry" />
        </mxCell>
        <mxCell id="9l6tXo_ypLGHm5UJ6JUw-41" value="" style="ellipse;whiteSpace=wrap;html=1;aspect=fixed;fillColor=#dae8fc;strokeColor=#6c8ebf;rounded=1;shadow=0;" vertex="1" parent="1">
          <mxGeometry x="190" y="658.1199999999999" width="20" height="20" as="geometry" />
        </mxCell>
        <mxCell id="9l6tXo_ypLGHm5UJ6JUw-42" value="" style="ellipse;whiteSpace=wrap;html=1;aspect=fixed;fillColor=#dae8fc;strokeColor=#6c8ebf;rounded=1;shadow=0;" vertex="1" parent="1">
          <mxGeometry x="150" y="618.1199999999999" width="20" height="20" as="geometry" />
        </mxCell>
        <mxCell id="9l6tXo_ypLGHm5UJ6JUw-43" value="" style="ellipse;whiteSpace=wrap;html=1;aspect=fixed;fillColor=#dae8fc;strokeColor=#6c8ebf;rounded=1;shadow=0;" vertex="1" parent="1">
          <mxGeometry x="150" y="698.1199999999999" width="20" height="20" as="geometry" />
        </mxCell>
        <mxCell id="9l6tXo_ypLGHm5UJ6JUw-44" value="" style="ellipse;whiteSpace=wrap;html=1;aspect=fixed;fillColor=#dae8fc;strokeColor=#6c8ebf;rounded=1;" vertex="1" parent="1">
          <mxGeometry x="110" y="658.1199999999999" width="20" height="20" as="geometry" />
        </mxCell>
        <mxCell id="9l6tXo_ypLGHm5UJ6JUw-45" value="" style="ellipse;whiteSpace=wrap;html=1;aspect=fixed;fillColor=#dae8fc;strokeColor=#6c8ebf;rounded=1;shadow=0;" vertex="1" parent="1">
          <mxGeometry x="240" y="698.1199999999999" width="20" height="20" as="geometry" />
        </mxCell>
        <mxCell id="9l6tXo_ypLGHm5UJ6JUw-46" value="" style="endArrow=classic;html=1;rounded=1;fillColor=#f8cecc;strokeColor=#b85450;shadow=0;" edge="1" parent="1">
          <mxGeometry width="50" height="50" relative="1" as="geometry">
            <mxPoint x="127" y="661.1199999999999" as="sourcePoint" />
            <mxPoint x="153" y="635.1199999999999" as="targetPoint" />
          </mxGeometry>
        </mxCell>
        <mxCell id="9l6tXo_ypLGHm5UJ6JUw-47" value="" style="endArrow=classic;html=1;rounded=1;exitX=1;exitY=1;exitDx=0;exitDy=0;entryX=0;entryY=0;entryDx=0;entryDy=0;fillColor=#f8cecc;strokeColor=#b85450;shadow=0;" edge="1" source="9l6tXo_ypLGHm5UJ6JUw-42" target="9l6tXo_ypLGHm5UJ6JUw-41" parent="1">
          <mxGeometry width="50" height="50" relative="1" as="geometry">
            <mxPoint x="170" y="638.1199999999999" as="sourcePoint" />
            <mxPoint x="190" y="658.1199999999999" as="targetPoint" />
          </mxGeometry>
        </mxCell>
        <mxCell id="9l6tXo_ypLGHm5UJ6JUw-48" value="" style="endArrow=classic;html=1;rounded=1;entryX=0;entryY=0;entryDx=0;entryDy=0;fillColor=#f8cecc;strokeColor=#b85450;shadow=0;exitX=1;exitY=1;exitDx=0;exitDy=0;" edge="1" source="9l6tXo_ypLGHm5UJ6JUw-44" target="9l6tXo_ypLGHm5UJ6JUw-43" parent="1">
          <mxGeometry width="50" height="50" relative="1" as="geometry">
            <mxPoint x="62" y="694.1199999999999" as="sourcePoint" />
            <mxPoint x="130" y="678.1199999999999" as="targetPoint" />
          </mxGeometry>
        </mxCell>
        <mxCell id="9l6tXo_ypLGHm5UJ6JUw-49" value="" style="endArrow=classic;html=1;rounded=1;entryX=0;entryY=0.5;entryDx=0;entryDy=0;fillColor=#f8cecc;strokeColor=#b85450;shadow=0;" edge="1" target="9l6tXo_ypLGHm5UJ6JUw-41" parent="1">
          <mxGeometry width="50" height="50" relative="1" as="geometry">
            <mxPoint x="130" y="668.1199999999999" as="sourcePoint" />
            <mxPoint x="180" y="658.1199999999999" as="targetPoint" />
          </mxGeometry>
        </mxCell>
        <mxCell id="9l6tXo_ypLGHm5UJ6JUw-50" value="" style="endArrow=classic;html=1;rounded=1;entryX=0;entryY=0;entryDx=0;entryDy=0;exitX=1;exitY=1;exitDx=0;exitDy=0;fillColor=#f8cecc;strokeColor=#b85450;shadow=0;" edge="1" source="9l6tXo_ypLGHm5UJ6JUw-41" target="9l6tXo_ypLGHm5UJ6JUw-45" parent="1">
          <mxGeometry width="50" height="50" relative="1" as="geometry">
            <mxPoint x="210" y="678.1199999999999" as="sourcePoint" />
            <mxPoint x="260" y="628.1199999999999" as="targetPoint" />
          </mxGeometry>
        </mxCell>
        <mxCell id="9l6tXo_ypLGHm5UJ6JUw-51" value="" style="endArrow=classic;html=1;rounded=1;entryX=0.5;entryY=1;entryDx=0;entryDy=0;exitX=0.5;exitY=0;exitDx=0;exitDy=0;fillColor=#f8cecc;strokeColor=#b85450;shadow=0;" edge="1" source="9l6tXo_ypLGHm5UJ6JUw-45" target="9l6tXo_ypLGHm5UJ6JUw-40" parent="1">
          <mxGeometry width="50" height="50" relative="1" as="geometry">
            <mxPoint x="240" y="698.1199999999999" as="sourcePoint" />
            <mxPoint x="290" y="648.1199999999999" as="targetPoint" />
            <Array as="points" />
          </mxGeometry>
        </mxCell>
        <mxCell id="9l6tXo_ypLGHm5UJ6JUw-52" value="" style="ellipse;whiteSpace=wrap;html=1;aspect=fixed;fillColor=#dae8fc;strokeColor=#6c8ebf;rounded=1;shadow=0;" vertex="1" parent="1">
          <mxGeometry x="200" y="738.1199999999999" width="20" height="20" as="geometry" />
        </mxCell>
        <mxCell id="9l6tXo_ypLGHm5UJ6JUw-53" value="" style="endArrow=classic;html=1;rounded=1;exitX=1;exitY=1;exitDx=0;exitDy=0;fillColor=#f8cecc;strokeColor=#b85450;shadow=0;entryX=0;entryY=0;entryDx=0;entryDy=0;" edge="1" source="9l6tXo_ypLGHm5UJ6JUw-43" target="9l6tXo_ypLGHm5UJ6JUw-52" parent="1">
          <mxGeometry width="50" height="50" relative="1" as="geometry">
            <mxPoint x="196.6199999999999" y="742.1999999999998" as="sourcePoint" />
            <mxPoint x="202" y="715.1199999999999" as="targetPoint" />
          </mxGeometry>
        </mxCell>
        <mxCell id="9l6tXo_ypLGHm5UJ6JUw-54" value="" style="ellipse;whiteSpace=wrap;html=1;aspect=fixed;fillColor=#dae8fc;strokeColor=#6c8ebf;rounded=1;shadow=0;" vertex="1" parent="1">
          <mxGeometry x="190" y="578.1199999999999" width="20" height="20" as="geometry" />
        </mxCell>
        <mxCell id="9l6tXo_ypLGHm5UJ6JUw-55" value="" style="endArrow=classic;html=1;rounded=1;fillColor=#f8cecc;strokeColor=#b85450;exitX=0.817;exitY=0.111;exitDx=0;exitDy=0;entryX=0;entryY=1;entryDx=0;entryDy=0;exitPerimeter=0;shadow=0;" edge="1" source="9l6tXo_ypLGHm5UJ6JUw-42" target="9l6tXo_ypLGHm5UJ6JUw-54" parent="1">
          <mxGeometry width="50" height="50" relative="1" as="geometry">
            <mxPoint x="164" y="618.1199999999999" as="sourcePoint" />
            <mxPoint x="190" y="592.1199999999999" as="targetPoint" />
          </mxGeometry>
        </mxCell>
        <mxCell id="9l6tXo_ypLGHm5UJ6JUw-56" value="" style="endArrow=classic;html=1;rounded=1;exitX=1;exitY=0;exitDx=0;exitDy=0;entryX=0;entryY=0.5;entryDx=0;entryDy=0;fillColor=#f8cecc;strokeColor=#b85450;" edge="1" source="9l6tXo_ypLGHm5UJ6JUw-41" target="9l6tXo_ypLGHm5UJ6JUw-40" parent="1">
          <mxGeometry width="50" height="50" relative="1" as="geometry">
            <mxPoint x="310" y="668.1199999999999" as="sourcePoint" />
            <mxPoint x="360" y="618.1199999999999" as="targetPoint" />
          </mxGeometry>
        </mxCell>
        <mxCell id="9l6tXo_ypLGHm5UJ6JUw-57" value="" style="endArrow=classic;html=1;rounded=0;entryX=1;entryY=0;entryDx=0;entryDy=0;exitX=0.188;exitY=0.895;exitDx=0;exitDy=0;exitPerimeter=0;fillColor=#f8cecc;strokeColor=#b85450;" edge="1" source="9l6tXo_ypLGHm5UJ6JUw-45" target="9l6tXo_ypLGHm5UJ6JUw-52" parent="1">
          <mxGeometry width="50" height="50" relative="1" as="geometry">
            <mxPoint x="150" y="778.1199999999999" as="sourcePoint" />
            <mxPoint x="200" y="728.1199999999999" as="targetPoint" />
          </mxGeometry>
        </mxCell>
        <mxCell id="9l6tXo_ypLGHm5UJ6JUw-58" value="&lt;div style=&quot;line-height: 2%;&quot;&gt;&lt;span style=&quot;background-color: initial;&quot;&gt;&lt;font style=&quot;font-size: 15px;&quot;&gt;$$e_{3}$$&lt;/font&gt;&lt;/span&gt;&lt;/div&gt;" style="text;html=1;align=right;verticalAlign=middle;resizable=0;points=[];autosize=1;strokeColor=none;fillColor=none;" vertex="1" parent="1">
          <mxGeometry x="120" y="563.1199999999999" width="90" height="10" as="geometry" />
        </mxCell>
        <mxCell id="9l6tXo_ypLGHm5UJ6JUw-59" value="&lt;div style=&quot;line-height: 0%;&quot;&gt;&lt;span style=&quot;background-color: initial;&quot;&gt;&lt;font style=&quot;font-size: 15px;&quot;&gt;$$e_{2}$$&lt;/font&gt;&lt;/span&gt;&lt;/div&gt;" style="text;html=1;align=right;verticalAlign=middle;resizable=0;points=[];autosize=1;strokeColor=none;fillColor=none;" vertex="1" parent="1">
          <mxGeometry x="60" y="613.1199999999999" width="90" height="10" as="geometry" />
        </mxCell>
        <mxCell id="9l6tXo_ypLGHm5UJ6JUw-60" value="&lt;div style=&quot;line-height: 0%;&quot;&gt;&lt;span style=&quot;background-color: initial;&quot;&gt;&lt;font style=&quot;font-size: 15px;&quot;&gt;$$e_{4}$$&lt;/font&gt;&lt;/span&gt;&lt;/div&gt;" style="text;html=1;align=left;verticalAlign=middle;resizable=0;points=[];autosize=1;strokeColor=none;fillColor=none;" vertex="1" parent="1">
          <mxGeometry x="195" y="646.1199999999999" width="90" height="10" as="geometry" />
        </mxCell>
        <mxCell id="9l6tXo_ypLGHm5UJ6JUw-61" value="&lt;div style=&quot;line-height: 0%;&quot;&gt;&lt;span style=&quot;background-color: initial;&quot;&gt;&lt;font style=&quot;font-size: 15px;&quot;&gt;$$e_{5}$$&lt;/font&gt;&lt;/span&gt;&lt;/div&gt;" style="text;html=1;align=left;verticalAlign=middle;resizable=0;points=[];autosize=1;strokeColor=none;fillColor=none;" vertex="1" parent="1">
          <mxGeometry x="270" y="633.1199999999999" width="90" height="10" as="geometry" />
        </mxCell>
        <mxCell id="9l6tXo_ypLGHm5UJ6JUw-62" value="&lt;div style=&quot;line-height: 0%;&quot;&gt;&lt;span style=&quot;background-color: initial;&quot;&gt;&lt;font style=&quot;font-size: 15px;&quot;&gt;$$e_{6}$$&lt;/font&gt;&lt;/span&gt;&lt;/div&gt;" style="text;html=1;align=left;verticalAlign=middle;resizable=0;points=[];autosize=1;strokeColor=none;fillColor=none;" vertex="1" parent="1">
          <mxGeometry x="260" y="708.1199999999999" width="90" height="10" as="geometry" />
        </mxCell>
        <mxCell id="9l6tXo_ypLGHm5UJ6JUw-63" value="&lt;div style=&quot;line-height: 0%;&quot;&gt;&lt;span style=&quot;background-color: initial;&quot;&gt;&lt;font style=&quot;font-size: 15px;&quot;&gt;$$e_{7}$$&lt;/font&gt;&lt;/span&gt;&lt;/div&gt;" style="text;html=1;align=left;verticalAlign=middle;resizable=0;points=[];autosize=1;strokeColor=none;fillColor=none;" vertex="1" parent="1">
          <mxGeometry x="200" y="760.6199999999999" width="90" height="10" as="geometry" />
        </mxCell>
        <mxCell id="9l6tXo_ypLGHm5UJ6JUw-64" value="&lt;div style=&quot;line-height: 0%;&quot;&gt;&lt;span style=&quot;background-color: initial;&quot;&gt;&lt;font style=&quot;font-size: 15px;&quot;&gt;$$e_{8}$$&lt;/font&gt;&lt;/span&gt;&lt;/div&gt;" style="text;html=1;align=right;verticalAlign=middle;resizable=0;points=[];autosize=1;strokeColor=none;fillColor=none;" vertex="1" parent="1">
          <mxGeometry x="70" y="718.1199999999999" width="90" height="10" as="geometry" />
        </mxCell>
        <mxCell id="9l6tXo_ypLGHm5UJ6JUw-65" value="&lt;div style=&quot;line-height: 0%;&quot;&gt;&lt;span style=&quot;background-color: initial;&quot;&gt;&lt;font style=&quot;font-size: 15px;&quot;&gt;$$r_{2}$$&lt;/font&gt;&lt;/span&gt;&lt;/div&gt;" style="text;html=1;align=right;verticalAlign=middle;resizable=0;points=[];autosize=1;strokeColor=none;fillColor=none;" vertex="1" parent="1">
          <mxGeometry x="90" y="598.1199999999999" width="90" height="10" as="geometry" />
        </mxCell>
        <mxCell id="9l6tXo_ypLGHm5UJ6JUw-66" value="&lt;div style=&quot;line-height: 0%;&quot;&gt;&lt;span style=&quot;background-color: initial;&quot;&gt;&lt;font style=&quot;font-size: 15px;&quot;&gt;$$r_{1}$$&lt;/font&gt;&lt;/span&gt;&lt;/div&gt;" style="text;html=1;align=left;verticalAlign=middle;resizable=0;points=[];autosize=1;strokeColor=none;fillColor=none;" vertex="1" parent="1">
          <mxGeometry x="151" y="670.6199999999999" width="90" height="10" as="geometry" />
        </mxCell>
        <mxCell id="9l6tXo_ypLGHm5UJ6JUw-67" value="&lt;div style=&quot;line-height: 0%;&quot;&gt;&lt;span style=&quot;background-color: initial;&quot;&gt;&lt;font style=&quot;font-size: 15px;&quot;&gt;$$r_{3}$$&lt;/font&gt;&lt;/span&gt;&lt;/div&gt;" style="text;html=1;align=right;verticalAlign=middle;resizable=0;points=[];autosize=1;strokeColor=none;fillColor=none;" vertex="1" parent="1">
          <mxGeometry x="105" y="633.1199999999999" width="90" height="10" as="geometry" />
        </mxCell>
        <mxCell id="9l6tXo_ypLGHm5UJ6JUw-68" value="&lt;div style=&quot;line-height: 0%;&quot;&gt;&lt;span style=&quot;background-color: initial;&quot;&gt;&lt;font style=&quot;font-size: 15px;&quot;&gt;$$r_{2}$$&lt;/font&gt;&lt;/span&gt;&lt;/div&gt;" style="text;html=1;align=right;verticalAlign=middle;resizable=0;points=[];autosize=1;strokeColor=none;fillColor=none;" vertex="1" parent="1">
          <mxGeometry x="190" y="680.6199999999999" width="90" height="10" as="geometry" />
        </mxCell>
        <mxCell id="9l6tXo_ypLGHm5UJ6JUw-69" value="&lt;div style=&quot;line-height: 0%;&quot;&gt;&lt;br&gt;&lt;/div&gt;" style="text;html=1;align=right;verticalAlign=middle;resizable=0;points=[];autosize=1;strokeColor=none;fillColor=none;" vertex="1" parent="1">
          <mxGeometry x="184" y="668.1199999999999" width="20" height="10" as="geometry" />
        </mxCell>
        <mxCell id="9l6tXo_ypLGHm5UJ6JUw-70" value="&lt;div style=&quot;line-height: 0%;&quot;&gt;&lt;span style=&quot;background-color: initial;&quot;&gt;&lt;font style=&quot;font-size: 15px;&quot;&gt;$$r_{3}$$&lt;/font&gt;&lt;/span&gt;&lt;/div&gt;" style="text;html=1;align=left;verticalAlign=middle;resizable=0;points=[];autosize=1;strokeColor=none;fillColor=none;" vertex="1" parent="1">
          <mxGeometry x="165" y="728.1199999999999" width="90" height="10" as="geometry" />
        </mxCell>
        <mxCell id="9l6tXo_ypLGHm5UJ6JUw-71" value="&lt;div style=&quot;line-height: 0%;&quot;&gt;&lt;span style=&quot;background-color: initial;&quot;&gt;&lt;font style=&quot;font-size: 15px;&quot;&gt;$$r_{3}$$&lt;/font&gt;&lt;/span&gt;&lt;/div&gt;" style="text;html=1;align=right;verticalAlign=middle;resizable=0;points=[];autosize=1;strokeColor=none;fillColor=none;" vertex="1" parent="1">
          <mxGeometry x="165" y="728.1199999999999" width="90" height="10" as="geometry" />
        </mxCell>
        <mxCell id="9l6tXo_ypLGHm5UJ6JUw-72" value="&lt;div style=&quot;line-height: 0%;&quot;&gt;&lt;span style=&quot;background-color: initial;&quot;&gt;&lt;font style=&quot;font-size: 15px;&quot;&gt;$$r_{2}$$&lt;/font&gt;&lt;/span&gt;&lt;/div&gt;" style="text;html=1;align=right;verticalAlign=middle;resizable=0;points=[];autosize=1;strokeColor=none;fillColor=none;rotation=31;" vertex="1" parent="1">
          <mxGeometry x="142" y="674.6199999999999" width="90" height="10" as="geometry" />
        </mxCell>
        <mxCell id="9l6tXo_ypLGHm5UJ6JUw-73" value="&lt;div style=&quot;line-height: 0%;&quot;&gt;&lt;span style=&quot;background-color: initial;&quot;&gt;&lt;font style=&quot;font-size: 15px;&quot;&gt;$$r_{4}$$&lt;/font&gt;&lt;/span&gt;&lt;/div&gt;" style="text;html=1;align=right;verticalAlign=middle;resizable=0;points=[];autosize=1;strokeColor=none;fillColor=none;" vertex="1" parent="1">
          <mxGeometry x="140" y="636.1199999999999" width="90" height="10" as="geometry" />
        </mxCell>
        <mxCell id="9l6tXo_ypLGHm5UJ6JUw-74" value="" style="strokeWidth=2;html=1;shape=mxgraph.flowchart.annotation_2;align=left;labelPosition=right;pointerEvents=1;" vertex="1" parent="1">
          <mxGeometry x="290" y="345" width="60" height="553.12" as="geometry" />
        </mxCell>
        <mxCell id="9l6tXo_ypLGHm5UJ6JUw-75" value="" style="rounded=1;whiteSpace=wrap;html=1;fillColor=none;" vertex="1" parent="1">
          <mxGeometry x="599.9999999999995" y="733.1199999999999" width="210" height="261" as="geometry" />
        </mxCell>
        <mxCell id="9l6tXo_ypLGHm5UJ6JUw-76" value="" style="ellipse;whiteSpace=wrap;html=1;aspect=fixed;fillColor=#dae8fc;strokeColor=#6c8ebf;rounded=1;shadow=0;" vertex="1" parent="1">
          <mxGeometry x="445" y="770.6199999999999" width="20" height="20" as="geometry" />
        </mxCell>
        <mxCell id="9l6tXo_ypLGHm5UJ6JUw-77" value="" style="endArrow=classic;html=1;rounded=0;entryX=0;entryY=0.5;entryDx=0;entryDy=0;fillColor=#f8cecc;strokeColor=#b85450;" edge="1" target="9l6tXo_ypLGHm5UJ6JUw-76" parent="1">
          <mxGeometry width="50" height="50" relative="1" as="geometry">
            <mxPoint x="395" y="780.6199999999999" as="sourcePoint" />
            <mxPoint x="225" y="770.6199999999999" as="targetPoint" />
          </mxGeometry>
        </mxCell>
        <mxCell id="9l6tXo_ypLGHm5UJ6JUw-78" value="" style="endArrow=classic;html=1;rounded=0;exitX=1;exitY=0.5;exitDx=0;exitDy=0;fillColor=#f8cecc;strokeColor=#b85450;" edge="1" source="9l6tXo_ypLGHm5UJ6JUw-76" parent="1">
          <mxGeometry width="50" height="50" relative="1" as="geometry">
            <mxPoint x="485" y="810.6199999999999" as="sourcePoint" />
            <mxPoint x="515" y="780.6199999999999" as="targetPoint" />
          </mxGeometry>
        </mxCell>
        <mxCell id="9l6tXo_ypLGHm5UJ6JUw-79" value="&lt;div style=&quot;line-height: 0%;&quot;&gt;&lt;span style=&quot;background-color: initial;&quot;&gt;&lt;font style=&quot;font-size: 15px;&quot;&gt;$$e_{2}$$&lt;/font&gt;&lt;/span&gt;&lt;/div&gt;" style="text;html=1;align=right;verticalAlign=middle;resizable=0;points=[];autosize=1;strokeColor=none;fillColor=none;" vertex="1" parent="1">
          <mxGeometry x="375" y="758.1199999999999" width="90" height="10" as="geometry" />
        </mxCell>
        <mxCell id="9l6tXo_ypLGHm5UJ6JUw-80" value="&lt;div style=&quot;line-height: 10%;&quot;&gt;&lt;span style=&quot;background-color: initial;&quot;&gt;&lt;font style=&quot;font-size: 15px;&quot;&gt;$$r_{1}$$&lt;/font&gt;&lt;/span&gt;&lt;/div&gt;" style="text;html=1;align=right;verticalAlign=middle;resizable=0;points=[];autosize=1;strokeColor=none;fillColor=none;" vertex="1" parent="1">
          <mxGeometry x="335" y="760.6199999999999" width="90" height="20" as="geometry" />
        </mxCell>
        <mxCell id="9l6tXo_ypLGHm5UJ6JUw-81" value="&lt;div style=&quot;line-height: 0%;&quot;&gt;&lt;span style=&quot;background-color: initial;&quot;&gt;&lt;font style=&quot;font-size: 15px;&quot;&gt;$$r_{2}$$&lt;/font&gt;&lt;/span&gt;&lt;/div&gt;" style="text;html=1;align=right;verticalAlign=middle;resizable=0;points=[];autosize=1;strokeColor=none;fillColor=none;" vertex="1" parent="1">
          <mxGeometry x="405" y="763.1199999999999" width="90" height="10" as="geometry" />
        </mxCell>
        <mxCell id="9l6tXo_ypLGHm5UJ6JUw-82" value="" style="ellipse;whiteSpace=wrap;html=1;aspect=fixed;fillColor=#dae8fc;strokeColor=#6c8ebf;rounded=1;shadow=0;" vertex="1" parent="1">
          <mxGeometry x="445" y="818.6199999999999" width="20" height="20" as="geometry" />
        </mxCell>
        <mxCell id="9l6tXo_ypLGHm5UJ6JUw-83" value="" style="endArrow=classic;html=1;rounded=0;entryX=0;entryY=0.5;entryDx=0;entryDy=0;fillColor=#f8cecc;strokeColor=#b85450;" edge="1" target="9l6tXo_ypLGHm5UJ6JUw-82" parent="1">
          <mxGeometry width="50" height="50" relative="1" as="geometry">
            <mxPoint x="395" y="828.6199999999999" as="sourcePoint" />
            <mxPoint x="225" y="818.6199999999999" as="targetPoint" />
          </mxGeometry>
        </mxCell>
        <mxCell id="9l6tXo_ypLGHm5UJ6JUw-84" value="" style="endArrow=classic;html=1;rounded=0;exitX=1;exitY=0.5;exitDx=0;exitDy=0;fillColor=#f8cecc;strokeColor=#b85450;" edge="1" source="9l6tXo_ypLGHm5UJ6JUw-82" parent="1">
          <mxGeometry width="50" height="50" relative="1" as="geometry">
            <mxPoint x="485" y="858.6199999999999" as="sourcePoint" />
            <mxPoint x="515" y="829.1199999999999" as="targetPoint" />
          </mxGeometry>
        </mxCell>
        <mxCell id="9l6tXo_ypLGHm5UJ6JUw-85" value="&lt;div style=&quot;line-height: 0%;&quot;&gt;&lt;span style=&quot;background-color: initial;&quot;&gt;&lt;font style=&quot;font-size: 15px;&quot;&gt;$$e_{4}$$&lt;/font&gt;&lt;/span&gt;&lt;/div&gt;" style="text;html=1;align=right;verticalAlign=middle;resizable=0;points=[];autosize=1;strokeColor=none;fillColor=none;" vertex="1" parent="1">
          <mxGeometry x="375" y="806.1199999999999" width="90" height="10" as="geometry" />
        </mxCell>
        <mxCell id="9l6tXo_ypLGHm5UJ6JUw-86" value="&lt;div style=&quot;line-height: 10%;&quot;&gt;&lt;span style=&quot;background-color: initial;&quot;&gt;&lt;font style=&quot;font-size: 15px;&quot;&gt;$$r_{1}$$&lt;/font&gt;&lt;/span&gt;&lt;/div&gt;" style="text;html=1;align=right;verticalAlign=middle;resizable=0;points=[];autosize=1;strokeColor=none;fillColor=none;" vertex="1" parent="1">
          <mxGeometry x="335" y="808.6199999999999" width="90" height="20" as="geometry" />
        </mxCell>
        <mxCell id="9l6tXo_ypLGHm5UJ6JUw-87" value="&lt;div style=&quot;line-height: 0%;&quot;&gt;&lt;span style=&quot;background-color: initial;&quot;&gt;&lt;font style=&quot;font-size: 15px;&quot;&gt;$$r_{2}$$&lt;/font&gt;&lt;/span&gt;&lt;/div&gt;" style="text;html=1;align=right;verticalAlign=middle;resizable=0;points=[];autosize=1;strokeColor=none;fillColor=none;" vertex="1" parent="1">
          <mxGeometry x="405" y="811.1199999999999" width="90" height="10" as="geometry" />
        </mxCell>
        <mxCell id="9l6tXo_ypLGHm5UJ6JUw-88" value="" style="ellipse;whiteSpace=wrap;html=1;aspect=fixed;fillColor=#dae8fc;strokeColor=#6c8ebf;rounded=1;shadow=0;" vertex="1" parent="1">
          <mxGeometry x="445" y="868.6199999999999" width="20" height="20" as="geometry" />
        </mxCell>
        <mxCell id="9l6tXo_ypLGHm5UJ6JUw-89" value="" style="endArrow=classic;html=1;rounded=0;entryX=0;entryY=0.5;entryDx=0;entryDy=0;fillColor=#f8cecc;strokeColor=#b85450;" edge="1" target="9l6tXo_ypLGHm5UJ6JUw-88" parent="1">
          <mxGeometry width="50" height="50" relative="1" as="geometry">
            <mxPoint x="395" y="878.6199999999999" as="sourcePoint" />
            <mxPoint x="225" y="868.6199999999999" as="targetPoint" />
          </mxGeometry>
        </mxCell>
        <mxCell id="9l6tXo_ypLGHm5UJ6JUw-90" value="" style="endArrow=classic;html=1;rounded=0;exitX=1;exitY=0.5;exitDx=0;exitDy=0;fillColor=#f8cecc;strokeColor=#b85450;" edge="1" source="9l6tXo_ypLGHm5UJ6JUw-88" parent="1">
          <mxGeometry width="50" height="50" relative="1" as="geometry">
            <mxPoint x="485" y="908.6199999999999" as="sourcePoint" />
            <mxPoint x="515" y="878.6199999999999" as="targetPoint" />
          </mxGeometry>
        </mxCell>
        <mxCell id="9l6tXo_ypLGHm5UJ6JUw-91" value="&lt;div style=&quot;line-height: 0%;&quot;&gt;&lt;span style=&quot;background-color: initial;&quot;&gt;&lt;font style=&quot;font-size: 15px;&quot;&gt;$$e_{6}$$&lt;/font&gt;&lt;/span&gt;&lt;/div&gt;" style="text;html=1;align=right;verticalAlign=middle;resizable=0;points=[];autosize=1;strokeColor=none;fillColor=none;" vertex="1" parent="1">
          <mxGeometry x="375" y="851.1199999999999" width="90" height="10" as="geometry" />
        </mxCell>
        <mxCell id="9l6tXo_ypLGHm5UJ6JUw-92" value="&lt;div style=&quot;line-height: 10%;&quot;&gt;&lt;span style=&quot;background-color: initial;&quot;&gt;&lt;font style=&quot;font-size: 15px;&quot;&gt;$$r_{2}$$&lt;/font&gt;&lt;/span&gt;&lt;/div&gt;" style="text;html=1;align=right;verticalAlign=middle;resizable=0;points=[];autosize=1;strokeColor=none;fillColor=none;" vertex="1" parent="1">
          <mxGeometry x="335" y="858.6199999999999" width="90" height="20" as="geometry" />
        </mxCell>
        <mxCell id="9l6tXo_ypLGHm5UJ6JUw-93" value="" style="ellipse;whiteSpace=wrap;html=1;aspect=fixed;fillColor=#dae8fc;strokeColor=#6c8ebf;rounded=1;shadow=0;" vertex="1" parent="1">
          <mxGeometry x="446" y="910.6199999999999" width="20" height="20" as="geometry" />
        </mxCell>
        <mxCell id="9l6tXo_ypLGHm5UJ6JUw-94" value="" style="endArrow=classic;html=1;rounded=0;fillColor=#f8cecc;strokeColor=#b85450;" edge="1" parent="1">
          <mxGeometry width="50" height="50" relative="1" as="geometry">
            <mxPoint x="396" y="920.6199999999999" as="sourcePoint" />
            <mxPoint x="446" y="921.1199999999999" as="targetPoint" />
          </mxGeometry>
        </mxCell>
        <mxCell id="9l6tXo_ypLGHm5UJ6JUw-95" value="" style="endArrow=classic;html=1;rounded=0;exitX=1;exitY=0.5;exitDx=0;exitDy=0;fillColor=#f8cecc;strokeColor=#b85450;" edge="1" source="9l6tXo_ypLGHm5UJ6JUw-93" parent="1">
          <mxGeometry width="50" height="50" relative="1" as="geometry">
            <mxPoint x="486" y="950.6199999999999" as="sourcePoint" />
            <mxPoint x="516" y="921.1199999999999" as="targetPoint" />
          </mxGeometry>
        </mxCell>
        <mxCell id="9l6tXo_ypLGHm5UJ6JUw-96" value="&lt;div style=&quot;line-height: 0%;&quot;&gt;&lt;span style=&quot;background-color: initial;&quot;&gt;&lt;font style=&quot;font-size: 15px;&quot;&gt;$$e_{8}$$&lt;/font&gt;&lt;/span&gt;&lt;/div&gt;" style="text;html=1;align=right;verticalAlign=middle;resizable=0;points=[];autosize=1;strokeColor=none;fillColor=none;" vertex="1" parent="1">
          <mxGeometry x="376" y="898.1199999999999" width="90" height="10" as="geometry" />
        </mxCell>
        <mxCell id="9l6tXo_ypLGHm5UJ6JUw-97" value="&lt;div style=&quot;line-height: 10%;&quot;&gt;&lt;span style=&quot;background-color: initial;&quot;&gt;&lt;font style=&quot;font-size: 15px;&quot;&gt;$$r_{2}$$&lt;/font&gt;&lt;/span&gt;&lt;/div&gt;" style="text;html=1;align=right;verticalAlign=middle;resizable=0;points=[];autosize=1;strokeColor=none;fillColor=none;" vertex="1" parent="1">
          <mxGeometry x="336" y="900.6199999999999" width="90" height="20" as="geometry" />
        </mxCell>
        <mxCell id="9l6tXo_ypLGHm5UJ6JUw-98" value="&lt;div style=&quot;line-height: 0%;&quot;&gt;&lt;span style=&quot;background-color: initial;&quot;&gt;&lt;font style=&quot;font-size: 15px;&quot;&gt;$$r_{3}$$&lt;/font&gt;&lt;/span&gt;&lt;/div&gt;" style="text;html=1;align=right;verticalAlign=middle;resizable=0;points=[];autosize=1;strokeColor=none;fillColor=none;" vertex="1" parent="1">
          <mxGeometry x="406" y="903.1199999999999" width="90" height="10" as="geometry" />
        </mxCell>
        <mxCell id="9l6tXo_ypLGHm5UJ6JUw-99" value="&lt;font face=&quot;Times New Roman&quot; style=&quot;font-size: 15px;&quot;&gt;&lt;b&gt;Course knowledge Graph&lt;/b&gt;&lt;/font&gt;" style="text;whiteSpace=wrap;html=1;" vertex="1" parent="1">
          <mxGeometry x="109.18000000000006" y="830.1199999999999" width="220" height="40" as="geometry" />
        </mxCell>
        <mxCell id="9l6tXo_ypLGHm5UJ6JUw-100" value="&lt;font face=&quot;Times New Roman&quot;&gt;&lt;span style=&quot;font-size: 14px;&quot;&gt;&lt;b&gt;有向关系中心图&lt;/b&gt;&lt;/span&gt;&lt;/font&gt;" style="text;whiteSpace=wrap;html=1;" vertex="1" parent="1">
          <mxGeometry x="649.9999999999995" y="948.1199999999999" width="200" height="30" as="geometry" />
        </mxCell>
        <mxCell id="9l6tXo_ypLGHm5UJ6JUw-101" value="&lt;font face=&quot;Times New Roman&quot;&gt;&lt;span style=&quot;font-size: 14px;&quot;&gt;&lt;b&gt;关系约束&lt;/b&gt;&lt;/span&gt;&lt;/font&gt;" style="text;html=1;align=center;verticalAlign=middle;resizable=0;points=[];autosize=1;strokeColor=none;fillColor=none;" vertex="1" parent="1">
          <mxGeometry x="414" y="945.1199999999999" width="80" height="30" as="geometry" />
        </mxCell>
        <mxCell id="9l6tXo_ypLGHm5UJ6JUw-102" value="" style="whiteSpace=wrap;html=1;aspect=fixed;fillColor=#C2D9FF;strokeColor=default;fontColor=#ffffff;" vertex="1" parent="1">
          <mxGeometry x="1260.0000000000005" y="770.1199999999999" width="20" height="20" as="geometry" />
        </mxCell>
        <mxCell id="9l6tXo_ypLGHm5UJ6JUw-103" value="" style="whiteSpace=wrap;html=1;aspect=fixed;fillColor=#A9C4EB;strokeColor=default;" vertex="1" parent="1">
          <mxGeometry x="1220.0000000000005" y="770.1199999999999" width="20" height="20" as="geometry" />
        </mxCell>
        <mxCell id="9l6tXo_ypLGHm5UJ6JUw-104" value="" style="whiteSpace=wrap;html=1;aspect=fixed;fillColor=#8eaccd;strokeColor=default;" vertex="1" parent="1">
          <mxGeometry x="1240.0000000000005" y="770.1199999999999" width="20" height="20" as="geometry" />
        </mxCell>
        <mxCell id="9l6tXo_ypLGHm5UJ6JUw-105" value="" style="whiteSpace=wrap;html=1;aspect=fixed;fillColor=#7EA6E0;strokeColor=default;" vertex="1" parent="1">
          <mxGeometry x="1280.0000000000005" y="770.1199999999999" width="20" height="20" as="geometry" />
        </mxCell>
        <mxCell id="9l6tXo_ypLGHm5UJ6JUw-106" value="" style="whiteSpace=wrap;html=1;aspect=fixed;fillColor=#99CCFF;strokeColor=default;" vertex="1" parent="1">
          <mxGeometry x="1220" y="790.1199999999999" width="24" height="24" as="geometry" />
        </mxCell>
        <mxCell id="9l6tXo_ypLGHm5UJ6JUw-107" value="" style="whiteSpace=wrap;html=1;aspect=fixed;fillColor=#CCE5FF;strokeColor=default;" vertex="1" parent="1">
          <mxGeometry x="1260" y="790.1199999999999" width="20" height="20" as="geometry" />
        </mxCell>
        <mxCell id="9l6tXo_ypLGHm5UJ6JUw-108" value="" style="whiteSpace=wrap;html=1;aspect=fixed;fillColor=#C2D9FF;strokeColor=default;fontColor=#ffffff;" vertex="1" parent="1">
          <mxGeometry x="1280" y="790.1199999999999" width="20" height="20" as="geometry" />
        </mxCell>
        <mxCell id="9l6tXo_ypLGHm5UJ6JUw-109" value="" style="whiteSpace=wrap;html=1;aspect=fixed;fillColor=#A9C4EB;strokeColor=default;" vertex="1" parent="1">
          <mxGeometry x="1240" y="790.1199999999999" width="20" height="20" as="geometry" />
        </mxCell>
        <mxCell id="9l6tXo_ypLGHm5UJ6JUw-110" value="" style="whiteSpace=wrap;html=1;aspect=fixed;fillColor=#d2e0fb;strokeColor=default;fontColor=#ffffff;" vertex="1" parent="1">
          <mxGeometry x="1260.0000000000005" y="810.1199999999999" width="20" height="20" as="geometry" />
        </mxCell>
        <mxCell id="9l6tXo_ypLGHm5UJ6JUw-111" value="" style="whiteSpace=wrap;html=1;aspect=fixed;fillColor=#99CCFF;strokeColor=default;" vertex="1" parent="1">
          <mxGeometry x="1240.0000000000005" y="810.1199999999999" width="20" height="20" as="geometry" />
        </mxCell>
        <mxCell id="9l6tXo_ypLGHm5UJ6JUw-112" value="" style="whiteSpace=wrap;html=1;aspect=fixed;fillColor=#A9C4EB;strokeColor=default;" vertex="1" parent="1">
          <mxGeometry x="1280.0000000000005" y="810.1199999999999" width="20" height="20" as="geometry" />
        </mxCell>
        <mxCell id="9l6tXo_ypLGHm5UJ6JUw-113" value="" style="whiteSpace=wrap;html=1;aspect=fixed;fillColor=#C2D9FF;strokeColor=default;fontColor=#ffffff;" vertex="1" parent="1">
          <mxGeometry x="1220" y="810.1199999999999" width="20" height="20" as="geometry" />
        </mxCell>
        <mxCell id="9l6tXo_ypLGHm5UJ6JUw-114" value="" style="whiteSpace=wrap;html=1;aspect=fixed;fillColor=#C2D9FF;strokeColor=default;fontColor=#ffffff;" vertex="1" parent="1">
          <mxGeometry x="938.1799999999998" y="760.1199999999999" width="20" height="20" as="geometry" />
        </mxCell>
        <mxCell id="9l6tXo_ypLGHm5UJ6JUw-115" value="" style="whiteSpace=wrap;html=1;aspect=fixed;fillColor=#C2D9FF;strokeColor=default;fontColor=#ffffff;" vertex="1" parent="1">
          <mxGeometry x="878" y="740.1199999999999" width="20" height="20" as="geometry" />
        </mxCell>
        <mxCell id="9l6tXo_ypLGHm5UJ6JUw-116" value="" style="whiteSpace=wrap;html=1;aspect=fixed;fillColor=#8eaccd;strokeColor=default;" vertex="1" parent="1">
          <mxGeometry x="878" y="720.1199999999999" width="20" height="20" as="geometry" />
        </mxCell>
        <mxCell id="9l6tXo_ypLGHm5UJ6JUw-117" value="" style="whiteSpace=wrap;html=1;aspect=fixed;fillColor=#8eaccd;strokeColor=default;" vertex="1" parent="1">
          <mxGeometry x="878" y="759.8699999999999" width="20" height="20" as="geometry" />
        </mxCell>
        <mxCell id="9l6tXo_ypLGHm5UJ6JUw-118" value="" style="ellipse;whiteSpace=wrap;html=1;aspect=fixed;fillColor=#dae8fc;strokeColor=#000000;rounded=1;shadow=0;" vertex="1" parent="1">
          <mxGeometry x="893.1800000000003" y="918.1199999999999" width="10" height="10" as="geometry" />
        </mxCell>
        <mxCell id="9l6tXo_ypLGHm5UJ6JUw-119" value="" style="ellipse;whiteSpace=wrap;html=1;aspect=fixed;fillColor=#dae8fc;strokeColor=#000000;rounded=1;shadow=0;" vertex="1" parent="1">
          <mxGeometry x="893.1800000000003" y="938.1199999999999" width="10" height="10" as="geometry" />
        </mxCell>
        <mxCell id="9l6tXo_ypLGHm5UJ6JUw-120" value="" style="ellipse;whiteSpace=wrap;html=1;aspect=fixed;fillColor=#f8cecc;strokeColor=#000000;rounded=1;shadow=0;" vertex="1" parent="1">
          <mxGeometry x="913.1800000000003" y="918.1199999999999" width="10" height="10" as="geometry" />
        </mxCell>
        <mxCell id="9l6tXo_ypLGHm5UJ6JUw-121" value="" style="ellipse;whiteSpace=wrap;html=1;aspect=fixed;fillColor=#dae8fc;strokeColor=#000000;rounded=1;shadow=0;" vertex="1" parent="1">
          <mxGeometry x="913.1800000000003" y="938.1199999999999" width="10" height="10" as="geometry" />
        </mxCell>
        <mxCell id="9l6tXo_ypLGHm5UJ6JUw-122" value="" style="ellipse;whiteSpace=wrap;html=1;aspect=fixed;fillColor=#dae8fc;strokeColor=#000000;rounded=1;shadow=0;" vertex="1" parent="1">
          <mxGeometry x="943.1800000000003" y="918.1199999999999" width="10" height="10" as="geometry" />
        </mxCell>
        <mxCell id="9l6tXo_ypLGHm5UJ6JUw-123" value="" style="endArrow=classic;html=1;rounded=0;" edge="1" parent="1">
          <mxGeometry width="50" height="50" relative="1" as="geometry">
            <mxPoint x="884.1999999999998" y="918.1199999999999" as="sourcePoint" />
            <mxPoint x="884" y="948.1199999999999" as="targetPoint" />
          </mxGeometry>
        </mxCell>
        <mxCell id="9l6tXo_ypLGHm5UJ6JUw-124" value="" style="ellipse;whiteSpace=wrap;html=1;aspect=fixed;fillColor=#f8cecc;strokeColor=#000000;rounded=1;shadow=0;" vertex="1" parent="1">
          <mxGeometry x="943.1800000000003" y="938.1199999999999" width="10" height="10" as="geometry" />
        </mxCell>
        <mxCell id="9l6tXo_ypLGHm5UJ6JUw-125" value="" style="rounded=1;whiteSpace=wrap;html=1;fillColor=none;strokeWidth=2;dashed=1;" vertex="1" parent="1">
          <mxGeometry x="858.9100000000001" y="672.3699999999999" width="751" height="350" as="geometry" />
        </mxCell>
        <mxCell id="9l6tXo_ypLGHm5UJ6JUw-126" value="" style="whiteSpace=wrap;html=1;aspect=fixed;fillColor=#F6e5d5;strokeColor=default;" vertex="1" parent="1">
          <mxGeometry x="897" y="811.1199999999999" width="20" height="20" as="geometry" />
        </mxCell>
        <mxCell id="9l6tXo_ypLGHm5UJ6JUw-127" value="" style="whiteSpace=wrap;html=1;aspect=fixed;fillColor=#eeced1;strokeColor=default;" vertex="1" parent="1">
          <mxGeometry x="897" y="831.1199999999999" width="20" height="20" as="geometry" />
        </mxCell>
        <mxCell id="9l6tXo_ypLGHm5UJ6JUw-128" value="" style="whiteSpace=wrap;html=1;aspect=fixed;fillColor=#fcc8d1;strokeColor=default;" vertex="1" parent="1">
          <mxGeometry x="877" y="811.1199999999999" width="20" height="20" as="geometry" />
        </mxCell>
        <mxCell id="9l6tXo_ypLGHm5UJ6JUw-129" value="" style="whiteSpace=wrap;html=1;aspect=fixed;fillColor=#FFCCCC;strokeColor=default;" vertex="1" parent="1">
          <mxGeometry x="877" y="831.1199999999999" width="20" height="20" as="geometry" />
        </mxCell>
        <mxCell id="9l6tXo_ypLGHm5UJ6JUw-130" value="" style="whiteSpace=wrap;html=1;aspect=fixed;fillColor=#F6e5d5;strokeColor=default;" vertex="1" parent="1">
          <mxGeometry x="917" y="831.1199999999999" width="20" height="20" as="geometry" />
        </mxCell>
        <mxCell id="9l6tXo_ypLGHm5UJ6JUw-131" value="" style="whiteSpace=wrap;html=1;aspect=fixed;fillColor=#eeced1;strokeColor=default;" vertex="1" parent="1">
          <mxGeometry x="917" y="811.1199999999999" width="20" height="20" as="geometry" />
        </mxCell>
        <mxCell id="9l6tXo_ypLGHm5UJ6JUw-132" value="" style="whiteSpace=wrap;html=1;aspect=fixed;fillColor=#eeced1;strokeColor=default;" vertex="1" parent="1">
          <mxGeometry x="937" y="831.1199999999999" width="20" height="20" as="geometry" />
        </mxCell>
        <mxCell id="9l6tXo_ypLGHm5UJ6JUw-133" value="" style="whiteSpace=wrap;html=1;aspect=fixed;fillColor=#F1B4BB;strokeColor=default;" vertex="1" parent="1">
          <mxGeometry x="897" y="851.1199999999999" width="20" height="20" as="geometry" />
        </mxCell>
        <mxCell id="9l6tXo_ypLGHm5UJ6JUw-134" value="" style="whiteSpace=wrap;html=1;aspect=fixed;fillColor=#F6e5d5;strokeColor=default;" vertex="1" parent="1">
          <mxGeometry x="937" y="851.1599999999999" width="20" height="20" as="geometry" />
        </mxCell>
        <mxCell id="9l6tXo_ypLGHm5UJ6JUw-135" value="" style="whiteSpace=wrap;html=1;aspect=fixed;fillColor=#eeced1;strokeColor=default;" vertex="1" parent="1">
          <mxGeometry x="877" y="851.1199999999999" width="20" height="20" as="geometry" />
        </mxCell>
        <mxCell id="9l6tXo_ypLGHm5UJ6JUw-136" value="" style="whiteSpace=wrap;html=1;aspect=fixed;fillColor=#FFCCCC;strokeColor=default;" vertex="1" parent="1">
          <mxGeometry x="917" y="851.1199999999999" width="20" height="20" as="geometry" />
        </mxCell>
        <mxCell id="9l6tXo_ypLGHm5UJ6JUw-137" value="" style="whiteSpace=wrap;html=1;aspect=fixed;fillColor=#F1B4BB;strokeColor=default;" vertex="1" parent="1">
          <mxGeometry x="1219" y="874.1199999999999" width="20" height="20" as="geometry" />
        </mxCell>
        <mxCell id="9l6tXo_ypLGHm5UJ6JUw-138" value="" style="whiteSpace=wrap;html=1;aspect=fixed;fillColor=#F6e5d5;strokeColor=default;" vertex="1" parent="1">
          <mxGeometry x="1239" y="894.1199999999999" width="20" height="20" as="geometry" />
        </mxCell>
        <mxCell id="9l6tXo_ypLGHm5UJ6JUw-139" value="" style="whiteSpace=wrap;html=1;aspect=fixed;fillColor=#eeced1;strokeColor=default;" vertex="1" parent="1">
          <mxGeometry x="1219" y="894.1199999999999" width="20" height="20" as="geometry" />
        </mxCell>
        <mxCell id="9l6tXo_ypLGHm5UJ6JUw-140" value="" style="whiteSpace=wrap;html=1;aspect=fixed;fillColor=#FFCCCC;strokeColor=default;" vertex="1" parent="1">
          <mxGeometry x="1239" y="874.1199999999999" width="20" height="20" as="geometry" />
        </mxCell>
        <mxCell id="9l6tXo_ypLGHm5UJ6JUw-141" value="" style="whiteSpace=wrap;html=1;aspect=fixed;fillColor=#eeced1;strokeColor=default;" vertex="1" parent="1">
          <mxGeometry x="1259" y="914.1199999999999" width="20" height="20" as="geometry" />
        </mxCell>
        <mxCell id="9l6tXo_ypLGHm5UJ6JUw-142" value="" style="whiteSpace=wrap;html=1;aspect=fixed;fillColor=#fcc8d1;strokeColor=default;" vertex="1" parent="1">
          <mxGeometry x="1259" y="894.1199999999999" width="20" height="20" as="geometry" />
        </mxCell>
        <mxCell id="9l6tXo_ypLGHm5UJ6JUw-143" value="" style="whiteSpace=wrap;html=1;aspect=fixed;fillColor=#FFCCCC;strokeColor=default;" vertex="1" parent="1">
          <mxGeometry x="1279" y="914.1199999999999" width="20" height="20" as="geometry" />
        </mxCell>
        <mxCell id="9l6tXo_ypLGHm5UJ6JUw-144" value="" style="whiteSpace=wrap;html=1;aspect=fixed;fillColor=#fcc8d1;strokeColor=default;" vertex="1" parent="1">
          <mxGeometry x="1219" y="914.1199999999999" width="20" height="20" as="geometry" />
        </mxCell>
        <mxCell id="9l6tXo_ypLGHm5UJ6JUw-145" value="" style="whiteSpace=wrap;html=1;aspect=fixed;fillColor=#F6e5d5;strokeColor=default;" vertex="1" parent="1">
          <mxGeometry x="1279" y="874.1199999999999" width="20" height="20" as="geometry" />
        </mxCell>
        <mxCell id="9l6tXo_ypLGHm5UJ6JUw-146" value="" style="whiteSpace=wrap;html=1;aspect=fixed;fillColor=#eeced1;strokeColor=default;" vertex="1" parent="1">
          <mxGeometry x="1279" y="894.1199999999999" width="20" height="20" as="geometry" />
        </mxCell>
        <mxCell id="9l6tXo_ypLGHm5UJ6JUw-147" value="" style="whiteSpace=wrap;html=1;aspect=fixed;fillColor=#eeced1;strokeColor=default;" vertex="1" parent="1">
          <mxGeometry x="1259" y="874.1199999999999" width="20" height="20" as="geometry" />
        </mxCell>
        <mxCell id="9l6tXo_ypLGHm5UJ6JUw-148" value="" style="whiteSpace=wrap;html=1;aspect=fixed;fillColor=#F1B4BB;strokeColor=default;" vertex="1" parent="1">
          <mxGeometry x="1239" y="914.1199999999999" width="20" height="20" as="geometry" />
        </mxCell>
        <mxCell id="9l6tXo_ypLGHm5UJ6JUw-149" value="&lt;font style=&quot;font-size: 15px;&quot;&gt;...&lt;/font&gt;" style="text;html=1;align=center;verticalAlign=middle;resizable=0;points=[];autosize=1;strokeColor=none;fillColor=none;" vertex="1" parent="1">
          <mxGeometry x="912.0000000000005" y="905.6199999999999" width="40" height="30" as="geometry" />
        </mxCell>
        <mxCell id="9l6tXo_ypLGHm5UJ6JUw-150" value="&lt;font style=&quot;font-size: 15px;&quot;&gt;...&lt;/font&gt;" style="text;html=1;align=center;verticalAlign=middle;resizable=0;points=[];autosize=1;strokeColor=none;fillColor=none;" vertex="1" parent="1">
          <mxGeometry x="923.1800000000005" y="930.6199999999999" width="40" height="30" as="geometry" />
        </mxCell>
        <mxCell id="9l6tXo_ypLGHm5UJ6JUw-151" value="" style="rounded=1;whiteSpace=wrap;html=1;fillColor=none;" vertex="1" parent="1">
          <mxGeometry x="359" y="730.6199999999999" width="200" height="261" as="geometry" />
        </mxCell>
        <mxCell id="9l6tXo_ypLGHm5UJ6JUw-152" value="" style="rounded=1;whiteSpace=wrap;html=1;dashed=1;fillColor=none;strokeWidth=2;" vertex="1" parent="1">
          <mxGeometry x="350" y="675" width="467" height="340" as="geometry" />
        </mxCell>
        <mxCell id="9l6tXo_ypLGHm5UJ6JUw-153" value="" style="whiteSpace=wrap;html=1;aspect=fixed;fillColor=#F1B4BB;strokeColor=default;" vertex="1" parent="1">
          <mxGeometry x="937" y="811.1199999999999" width="20" height="20" as="geometry" />
        </mxCell>
        <mxCell id="9l6tXo_ypLGHm5UJ6JUw-154" value="" style="whiteSpace=wrap;html=1;aspect=fixed;fillColor=#99CCFF;strokeColor=default;" vertex="1" parent="1">
          <mxGeometry x="898" y="720.1199999999999" width="20" height="20" as="geometry" />
        </mxCell>
        <mxCell id="9l6tXo_ypLGHm5UJ6JUw-155" value="" style="whiteSpace=wrap;html=1;aspect=fixed;fillColor=#C2D9FF;strokeColor=default;fontColor=#ffffff;" vertex="1" parent="1">
          <mxGeometry x="898" y="759.8699999999999" width="20" height="20" as="geometry" />
        </mxCell>
        <mxCell id="9l6tXo_ypLGHm5UJ6JUw-156" value="" style="whiteSpace=wrap;html=1;aspect=fixed;fillColor=#8eaccd;strokeColor=default;" vertex="1" parent="1">
          <mxGeometry x="898" y="739.8699999999999" width="20" height="20" as="geometry" />
        </mxCell>
        <mxCell id="9l6tXo_ypLGHm5UJ6JUw-157" value="" style="whiteSpace=wrap;html=1;aspect=fixed;fillColor=#7EA6E0;strokeColor=default;" vertex="1" parent="1">
          <mxGeometry x="918" y="720.1199999999999" width="20" height="20" as="geometry" />
        </mxCell>
        <mxCell id="9l6tXo_ypLGHm5UJ6JUw-158" value="" style="whiteSpace=wrap;html=1;aspect=fixed;fillColor=#7EA6E0;strokeColor=default;" vertex="1" parent="1">
          <mxGeometry x="918.1799999999998" y="759.8699999999999" width="20" height="20" as="geometry" />
        </mxCell>
        <mxCell id="9l6tXo_ypLGHm5UJ6JUw-159" value="" style="whiteSpace=wrap;html=1;aspect=fixed;fillColor=#99CCFF;strokeColor=default;" vertex="1" parent="1">
          <mxGeometry x="918.1799999999998" y="740.1199999999999" width="20" height="20" as="geometry" />
        </mxCell>
        <mxCell id="9l6tXo_ypLGHm5UJ6JUw-160" value="" style="whiteSpace=wrap;html=1;aspect=fixed;fillColor=#8eaccd;strokeColor=default;" vertex="1" parent="1">
          <mxGeometry x="938.1800000000003" y="720.1199999999999" width="20" height="20" as="geometry" />
        </mxCell>
        <mxCell id="9l6tXo_ypLGHm5UJ6JUw-161" value="" style="whiteSpace=wrap;html=1;aspect=fixed;fillColor=#7EA6E0;strokeColor=default;" vertex="1" parent="1">
          <mxGeometry x="938.1799999999998" y="740.6199999999999" width="20" height="20" as="geometry" />
        </mxCell>
        <mxCell id="9l6tXo_ypLGHm5UJ6JUw-162" value="&lt;font style=&quot;font-size: 24px;&quot;&gt;&lt;b&gt;聚类结构信息&lt;/b&gt;&lt;/font&gt;" style="rounded=1;whiteSpace=wrap;html=1;fillColor=none;strokeWidth=1;strokeColor=#330000;" vertex="1" parent="1">
          <mxGeometry x="373.17999999999995" y="566.1199999999999" width="206.82" height="80" as="geometry" />
        </mxCell>
        <mxCell id="9l6tXo_ypLGHm5UJ6JUw-163" value="" style="endArrow=classic;html=1;rounded=0;exitX=1;exitY=0.5;exitDx=0;exitDy=0;strokeWidth=5;" edge="1" source="9l6tXo_ypLGHm5UJ6JUw-31" parent="1">
          <mxGeometry width="50" height="50" relative="1" as="geometry">
            <mxPoint x="1310" y="795" as="sourcePoint" />
            <mxPoint x="1390" y="785" as="targetPoint" />
          </mxGeometry>
        </mxCell>
        <mxCell id="9l6tXo_ypLGHm5UJ6JUw-164" value="" style="endArrow=classic;html=1;rounded=0;exitX=1;exitY=0.5;exitDx=0;exitDy=0;strokeWidth=5;entryX=0.01;entryY=0.825;entryDx=0;entryDy=0;entryPerimeter=0;" edge="1" target="9l6tXo_ypLGHm5UJ6JUw-6" parent="1">
          <mxGeometry width="50" height="50" relative="1" as="geometry">
            <mxPoint x="1309" y="925.1199999999999" as="sourcePoint" />
            <mxPoint x="1380" y="927" as="targetPoint" />
          </mxGeometry>
        </mxCell>
        <mxCell id="9l6tXo_ypLGHm5UJ6JUw-165" value="" style="endArrow=classic;html=1;rounded=0;exitX=1;exitY=0.5;exitDx=0;exitDy=0;strokeWidth=5;" edge="1" parent="1">
          <mxGeometry width="50" height="50" relative="1" as="geometry">
            <mxPoint x="968" y="798.6199999999999" as="sourcePoint" />
            <mxPoint x="1012" y="800.5" as="targetPoint" />
          </mxGeometry>
        </mxCell>
        <mxCell id="9l6tXo_ypLGHm5UJ6JUw-166" value="" style="endArrow=classic;html=1;rounded=0;exitX=1;exitY=0.5;exitDx=0;exitDy=0;strokeWidth=5;" edge="1" parent="1">
          <mxGeometry width="50" height="50" relative="1" as="geometry">
            <mxPoint x="968.4100000000001" y="920.6199999999999" as="sourcePoint" />
            <mxPoint x="1012.4100000000001" y="922.5" as="targetPoint" />
          </mxGeometry>
        </mxCell>
        <mxCell id="9l6tXo_ypLGHm5UJ6JUw-167" value="" style="endArrow=classic;html=1;rounded=0;exitX=1;exitY=0.5;exitDx=0;exitDy=0;strokeWidth=5;" edge="1" parent="1">
          <mxGeometry width="50" height="50" relative="1" as="geometry">
            <mxPoint x="1169" y="808.1199999999999" as="sourcePoint" />
            <mxPoint x="1210" y="808" as="targetPoint" />
          </mxGeometry>
        </mxCell>
        <mxCell id="9l6tXo_ypLGHm5UJ6JUw-168" value="" style="endArrow=classic;html=1;rounded=0;strokeWidth=5;" edge="1" parent="1">
          <mxGeometry width="50" height="50" relative="1" as="geometry">
            <mxPoint x="1168" y="918.1199999999999" as="sourcePoint" />
            <mxPoint x="1210" y="918" as="targetPoint" />
          </mxGeometry>
        </mxCell>
        <mxCell id="9l6tXo_ypLGHm5UJ6JUw-169" value="" style="endArrow=classic;html=1;rounded=0;exitX=1;exitY=0.5;exitDx=0;exitDy=0;strokeWidth=5;" edge="1" parent="1">
          <mxGeometry width="50" height="50" relative="1" as="geometry">
            <mxPoint x="560" y="850.1199999999999" as="sourcePoint" />
            <mxPoint x="600" y="850" as="targetPoint" />
          </mxGeometry>
        </mxCell>
        <mxCell id="9l6tXo_ypLGHm5UJ6JUw-170" style="edgeStyle=orthogonalEdgeStyle;rounded=0;orthogonalLoop=1;jettySize=auto;html=1;exitX=0.5;exitY=1;exitDx=0;exitDy=0;" edge="1" source="9l6tXo_ypLGHm5UJ6JUw-151" target="9l6tXo_ypLGHm5UJ6JUw-151" parent="1">
          <mxGeometry relative="1" as="geometry" />
        </mxCell>
        <mxCell id="9l6tXo_ypLGHm5UJ6JUw-171" value="" style="whiteSpace=wrap;html=1;aspect=fixed;fillColor=#C2D9FF;strokeColor=default;fontColor=#ffffff;" vertex="1" parent="1">
          <mxGeometry x="444.99999999999955" y="225" width="20" height="20" as="geometry" />
        </mxCell>
        <mxCell id="9l6tXo_ypLGHm5UJ6JUw-172" value="" style="whiteSpace=wrap;html=1;aspect=fixed;fillColor=#A9C4EB;strokeColor=default;" vertex="1" parent="1">
          <mxGeometry x="404.99999999999955" y="225" width="20" height="20" as="geometry" />
        </mxCell>
        <mxCell id="9l6tXo_ypLGHm5UJ6JUw-173" value="" style="whiteSpace=wrap;html=1;aspect=fixed;fillColor=#8eaccd;strokeColor=default;" vertex="1" parent="1">
          <mxGeometry x="424.99999999999955" y="225" width="20" height="20" as="geometry" />
        </mxCell>
        <mxCell id="9l6tXo_ypLGHm5UJ6JUw-174" value="" style="whiteSpace=wrap;html=1;aspect=fixed;fillColor=#7EA6E0;strokeColor=default;" vertex="1" parent="1">
          <mxGeometry x="464.99999999999955" y="225" width="20" height="20" as="geometry" />
        </mxCell>
        <mxCell id="9l6tXo_ypLGHm5UJ6JUw-175" value="" style="whiteSpace=wrap;html=1;aspect=fixed;fillColor=#99CCFF;strokeColor=default;" vertex="1" parent="1">
          <mxGeometry x="404.9999999999991" y="245" width="20" height="20" as="geometry" />
        </mxCell>
        <mxCell id="9l6tXo_ypLGHm5UJ6JUw-176" value="" style="whiteSpace=wrap;html=1;aspect=fixed;fillColor=#CCE5FF;strokeColor=default;" vertex="1" parent="1">
          <mxGeometry x="444.9999999999991" y="245" width="20" height="20" as="geometry" />
        </mxCell>
        <mxCell id="9l6tXo_ypLGHm5UJ6JUw-177" value="" style="whiteSpace=wrap;html=1;aspect=fixed;fillColor=#C2D9FF;strokeColor=default;fontColor=#ffffff;" vertex="1" parent="1">
          <mxGeometry x="464.9999999999991" y="245" width="20" height="20" as="geometry" />
        </mxCell>
        <mxCell id="9l6tXo_ypLGHm5UJ6JUw-178" value="" style="whiteSpace=wrap;html=1;aspect=fixed;fillColor=#A9C4EB;strokeColor=default;" vertex="1" parent="1">
          <mxGeometry x="424.9999999999991" y="245" width="20" height="20" as="geometry" />
        </mxCell>
        <mxCell id="9l6tXo_ypLGHm5UJ6JUw-179" value="" style="whiteSpace=wrap;html=1;aspect=fixed;fillColor=#99CCFF;strokeColor=default;" vertex="1" parent="1">
          <mxGeometry x="425.4999999999991" y="265" width="19.5" height="19.5" as="geometry" />
        </mxCell>
        <mxCell id="9l6tXo_ypLGHm5UJ6JUw-180" value="" style="whiteSpace=wrap;html=1;aspect=fixed;fillColor=#A9C4EB;strokeColor=default;" vertex="1" parent="1">
          <mxGeometry x="464.99999999999955" y="265" width="20" height="20" as="geometry" />
        </mxCell>
        <mxCell id="9l6tXo_ypLGHm5UJ6JUw-181" value="" style="whiteSpace=wrap;html=1;aspect=fixed;fillColor=#C2D9FF;strokeColor=default;fontColor=#ffffff;" vertex="1" parent="1">
          <mxGeometry x="404.9999999999991" y="265" width="20" height="20" as="geometry" />
        </mxCell>
        <mxCell id="9l6tXo_ypLGHm5UJ6JUw-182" value="" style="whiteSpace=wrap;html=1;aspect=fixed;fillColor=#8eaccd;strokeColor=default;" vertex="1" parent="1">
          <mxGeometry x="404.9999999999991" y="285" width="20" height="20" as="geometry" />
        </mxCell>
        <mxCell id="9l6tXo_ypLGHm5UJ6JUw-183" value="" style="whiteSpace=wrap;html=1;aspect=fixed;fillColor=#7EA6E0;strokeColor=default;" vertex="1" parent="1">
          <mxGeometry x="444.9999999999991" y="265" width="20" height="20" as="geometry" />
        </mxCell>
        <mxCell id="9l6tXo_ypLGHm5UJ6JUw-184" value="" style="whiteSpace=wrap;html=1;aspect=fixed;fillColor=#CCE5FF;strokeColor=default;" vertex="1" parent="1">
          <mxGeometry x="464.99999999999864" y="285" width="20" height="20" as="geometry" />
        </mxCell>
        <mxCell id="9l6tXo_ypLGHm5UJ6JUw-185" value="" style="whiteSpace=wrap;html=1;aspect=fixed;fillColor=#d2e0fb;strokeColor=default;fontColor=#ffffff;" vertex="1" parent="1">
          <mxGeometry x="424.9999999999991" y="285" width="20" height="20" as="geometry" />
        </mxCell>
        <mxCell id="9l6tXo_ypLGHm5UJ6JUw-186" value="" style="whiteSpace=wrap;html=1;aspect=fixed;fillColor=#99CCFF;strokeColor=default;direction=south;" vertex="1" parent="1">
          <mxGeometry x="444.9999999999991" y="285" width="20" height="20" as="geometry" />
        </mxCell>
        <mxCell id="9l6tXo_ypLGHm5UJ6JUw-187" value="" style="whiteSpace=wrap;html=1;aspect=fixed;fillColor=#F6e5d5;strokeColor=default;" vertex="1" parent="1">
          <mxGeometry x="533" y="225" width="20" height="20" as="geometry" />
        </mxCell>
        <mxCell id="9l6tXo_ypLGHm5UJ6JUw-188" value="" style="whiteSpace=wrap;html=1;aspect=fixed;fillColor=#eeced1;strokeColor=default;" vertex="1" parent="1">
          <mxGeometry x="533" y="245" width="20" height="20" as="geometry" />
        </mxCell>
        <mxCell id="9l6tXo_ypLGHm5UJ6JUw-189" value="" style="whiteSpace=wrap;html=1;aspect=fixed;fillColor=#fcc8d1;strokeColor=default;" vertex="1" parent="1">
          <mxGeometry x="513" y="225" width="20" height="20" as="geometry" />
        </mxCell>
        <mxCell id="9l6tXo_ypLGHm5UJ6JUw-190" value="" style="whiteSpace=wrap;html=1;aspect=fixed;fillColor=#FFCCCC;strokeColor=default;" vertex="1" parent="1">
          <mxGeometry x="513" y="245" width="20" height="20" as="geometry" />
        </mxCell>
        <mxCell id="9l6tXo_ypLGHm5UJ6JUw-191" value="" style="whiteSpace=wrap;html=1;aspect=fixed;fillColor=#F6e5d5;strokeColor=default;" vertex="1" parent="1">
          <mxGeometry x="553" y="245" width="20" height="20" as="geometry" />
        </mxCell>
        <mxCell id="9l6tXo_ypLGHm5UJ6JUw-192" value="" style="whiteSpace=wrap;html=1;aspect=fixed;fillColor=#eeced1;strokeColor=default;" vertex="1" parent="1">
          <mxGeometry x="553" y="225" width="20" height="20" as="geometry" />
        </mxCell>
        <mxCell id="9l6tXo_ypLGHm5UJ6JUw-193" value="" style="whiteSpace=wrap;html=1;aspect=fixed;fillColor=#eeced1;strokeColor=default;" vertex="1" parent="1">
          <mxGeometry x="573" y="245" width="20" height="20" as="geometry" />
        </mxCell>
        <mxCell id="9l6tXo_ypLGHm5UJ6JUw-194" value="" style="whiteSpace=wrap;html=1;aspect=fixed;fillColor=#F1B4BB;strokeColor=default;" vertex="1" parent="1">
          <mxGeometry x="533" y="265" width="20" height="20" as="geometry" />
        </mxCell>
        <mxCell id="9l6tXo_ypLGHm5UJ6JUw-195" value="" style="whiteSpace=wrap;html=1;aspect=fixed;fillColor=#F6e5d5;strokeColor=default;" vertex="1" parent="1">
          <mxGeometry x="573" y="265.03999999999996" width="20" height="20" as="geometry" />
        </mxCell>
        <mxCell id="9l6tXo_ypLGHm5UJ6JUw-196" value="" style="whiteSpace=wrap;html=1;aspect=fixed;fillColor=#eeced1;strokeColor=default;" vertex="1" parent="1">
          <mxGeometry x="513" y="265" width="20" height="20" as="geometry" />
        </mxCell>
        <mxCell id="9l6tXo_ypLGHm5UJ6JUw-197" value="" style="whiteSpace=wrap;html=1;aspect=fixed;fillColor=#FFCCCC;strokeColor=default;" vertex="1" parent="1">
          <mxGeometry x="553" y="265" width="20" height="20" as="geometry" />
        </mxCell>
        <mxCell id="9l6tXo_ypLGHm5UJ6JUw-198" value="" style="whiteSpace=wrap;html=1;aspect=fixed;fillColor=#F1B4BB;strokeColor=default;" vertex="1" parent="1">
          <mxGeometry x="573" y="225" width="20" height="20" as="geometry" />
        </mxCell>
        <mxCell id="9l6tXo_ypLGHm5UJ6JUw-199" value="" style="whiteSpace=wrap;html=1;aspect=fixed;fillColor=#F6e5d5;strokeColor=default;" vertex="1" parent="1">
          <mxGeometry x="533" y="285" width="20" height="20" as="geometry" />
        </mxCell>
        <mxCell id="9l6tXo_ypLGHm5UJ6JUw-200" value="" style="whiteSpace=wrap;html=1;aspect=fixed;fillColor=#fcc8d1;strokeColor=default;" vertex="1" parent="1">
          <mxGeometry x="513" y="285" width="20" height="20" as="geometry" />
        </mxCell>
        <mxCell id="9l6tXo_ypLGHm5UJ6JUw-201" value="" style="whiteSpace=wrap;html=1;aspect=fixed;fillColor=#eeced1;strokeColor=default;" vertex="1" parent="1">
          <mxGeometry x="553" y="285" width="20" height="20" as="geometry" />
        </mxCell>
        <mxCell id="9l6tXo_ypLGHm5UJ6JUw-202" value="" style="whiteSpace=wrap;html=1;aspect=fixed;fillColor=#F1B4BB;strokeColor=default;" vertex="1" parent="1">
          <mxGeometry x="573" y="285" width="20" height="20" as="geometry" />
        </mxCell>
        <mxCell id="9l6tXo_ypLGHm5UJ6JUw-203" value="&lt;font size=&quot;1&quot; style=&quot;&quot;&gt;&lt;b style=&quot;font-size: 24px;&quot;&gt;结构嵌入&lt;/b&gt;&lt;/font&gt;" style="text;html=1;align=center;verticalAlign=middle;resizable=0;points=[];autosize=1;strokeColor=none;fillColor=none;" vertex="1" parent="1">
          <mxGeometry x="430" y="175" width="120" height="40" as="geometry" />
        </mxCell>
        <mxCell id="9l6tXo_ypLGHm5UJ6JUw-204" value="" style="ellipse;whiteSpace=wrap;html=1;aspect=fixed;fillColor=#dae8fc;strokeColor=#6c8ebf;rounded=1;shadow=0;" vertex="1" parent="1">
          <mxGeometry x="450" y="415.6199999999999" width="20" height="20" as="geometry" />
        </mxCell>
        <mxCell id="9l6tXo_ypLGHm5UJ6JUw-205" value="" style="endArrow=classic;html=1;rounded=1;fillColor=#f8cecc;strokeColor=#b85450;exitX=1;exitY=0.5;exitDx=0;exitDy=0;shadow=0;" edge="1" parent="1">
          <mxGeometry width="50" height="50" relative="1" as="geometry">
            <mxPoint x="470" y="427.11999999999944" as="sourcePoint" />
            <mxPoint x="530" y="427.1199999999999" as="targetPoint" />
          </mxGeometry>
        </mxCell>
        <mxCell id="9l6tXo_ypLGHm5UJ6JUw-206" value="" style="ellipse;whiteSpace=wrap;html=1;aspect=fixed;fillColor=#dae8fc;strokeColor=#6c8ebf;rounded=1;shadow=0;" vertex="1" parent="1">
          <mxGeometry x="530" y="419.6199999999999" width="20" height="20" as="geometry" />
        </mxCell>
        <mxCell id="9l6tXo_ypLGHm5UJ6JUw-207" value="&lt;font style=&quot;font-size: 24px;&quot;&gt;&lt;b&gt;输入三元组&lt;br&gt;（头实体，关系，尾实体）&lt;br&gt;&lt;/b&gt;&lt;/font&gt;" style="text;html=1;align=center;verticalAlign=middle;resizable=0;points=[];autosize=1;strokeColor=none;fillColor=none;" vertex="1" parent="1">
          <mxGeometry x="345" y="440" width="310" height="70" as="geometry" />
        </mxCell>
        <mxCell id="9l6tXo_ypLGHm5UJ6JUw-208" value="" style="endArrow=classic;html=1;rounded=0;exitX=1;exitY=0.5;exitDx=0;exitDy=0;strokeWidth=5;" edge="1" parent="1">
          <mxGeometry width="50" height="50" relative="1" as="geometry">
            <mxPoint x="818" y="861.1199999999999" as="sourcePoint" />
            <mxPoint x="862" y="863" as="targetPoint" />
          </mxGeometry>
        </mxCell>
        <mxCell id="9l6tXo_ypLGHm5UJ6JUw-209" value="" style="endArrow=classic;html=1;rounded=0;strokeWidth=5;" edge="1" parent="1">
          <mxGeometry width="50" height="50" relative="1" as="geometry">
            <mxPoint x="626" y="274" as="sourcePoint" />
            <mxPoint x="720" y="276" as="targetPoint" />
          </mxGeometry>
        </mxCell>
        <mxCell id="9l6tXo_ypLGHm5UJ6JUw-210" value="" style="whiteSpace=wrap;html=1;aspect=fixed;fillColor=#eeced1;strokeColor=default;" vertex="1" parent="1">
          <mxGeometry x="771" y="265" width="20" height="20" as="geometry" />
        </mxCell>
        <mxCell id="9l6tXo_ypLGHm5UJ6JUw-211" value="" style="whiteSpace=wrap;html=1;aspect=fixed;fillColor=#FFCCCC;strokeColor=default;" vertex="1" parent="1">
          <mxGeometry x="751" y="265" width="20" height="20" as="geometry" />
        </mxCell>
        <mxCell id="9l6tXo_ypLGHm5UJ6JUw-212" value="" style="whiteSpace=wrap;html=1;aspect=fixed;fillColor=#F6e5d5;strokeColor=default;" vertex="1" parent="1">
          <mxGeometry x="791" y="265" width="20" height="20" as="geometry" />
        </mxCell>
        <mxCell id="9l6tXo_ypLGHm5UJ6JUw-213" value="" style="whiteSpace=wrap;html=1;aspect=fixed;fillColor=#eeced1;strokeColor=default;" vertex="1" parent="1">
          <mxGeometry x="811" y="265" width="20" height="20" as="geometry" />
        </mxCell>
        <mxCell id="9l6tXo_ypLGHm5UJ6JUw-214" value="" style="whiteSpace=wrap;html=1;aspect=fixed;fillColor=#99CCFF;strokeColor=default;" vertex="1" parent="1">
          <mxGeometry x="770.4999999999991" y="195" width="19.5" height="19.5" as="geometry" />
        </mxCell>
        <mxCell id="9l6tXo_ypLGHm5UJ6JUw-215" value="" style="whiteSpace=wrap;html=1;aspect=fixed;fillColor=#A9C4EB;strokeColor=default;" vertex="1" parent="1">
          <mxGeometry x="809.9999999999995" y="195" width="20" height="20" as="geometry" />
        </mxCell>
        <mxCell id="9l6tXo_ypLGHm5UJ6JUw-216" value="" style="whiteSpace=wrap;html=1;aspect=fixed;fillColor=#C2D9FF;strokeColor=default;fontColor=#ffffff;" vertex="1" parent="1">
          <mxGeometry x="749.9999999999991" y="195" width="20" height="20" as="geometry" />
        </mxCell>
        <mxCell id="9l6tXo_ypLGHm5UJ6JUw-217" value="" style="whiteSpace=wrap;html=1;aspect=fixed;fillColor=#7EA6E0;strokeColor=default;" vertex="1" parent="1">
          <mxGeometry x="789.9999999999991" y="195" width="20" height="20" as="geometry" />
        </mxCell>
        <mxCell id="9l6tXo_ypLGHm5UJ6JUw-218" value="" style="whiteSpace=wrap;html=1;aspect=fixed;fillColor=#99CCFF;strokeColor=default;" vertex="1" parent="1">
          <mxGeometry x="751" y="325" width="20" height="20" as="geometry" />
        </mxCell>
        <mxCell id="9l6tXo_ypLGHm5UJ6JUw-219" value="" style="whiteSpace=wrap;html=1;aspect=fixed;fillColor=#C2D9FF;strokeColor=default;fontColor=#ffffff;" vertex="1" parent="1">
          <mxGeometry x="811" y="325" width="20" height="20" as="geometry" />
        </mxCell>
        <mxCell id="9l6tXo_ypLGHm5UJ6JUw-220" value="" style="whiteSpace=wrap;html=1;aspect=fixed;fillColor=#A9C4EB;strokeColor=default;" vertex="1" parent="1">
          <mxGeometry x="771" y="325" width="20" height="20" as="geometry" />
        </mxCell>
        <mxCell id="9l6tXo_ypLGHm5UJ6JUw-221" value="" style="whiteSpace=wrap;html=1;aspect=fixed;fillColor=#8eaccd;strokeColor=default;" vertex="1" parent="1">
          <mxGeometry x="791.0000000000005" y="325" width="20" height="20" as="geometry" />
        </mxCell>
        <mxCell id="9l6tXo_ypLGHm5UJ6JUw-222" value="&lt;b&gt;&lt;font style=&quot;font-size: 24px;&quot;&gt;头实体&lt;/font&gt;&lt;/b&gt;" style="text;whiteSpace=wrap;html=1;" vertex="1" parent="1">
          <mxGeometry x="857" y="185" width="80" height="40" as="geometry" />
        </mxCell>
        <mxCell id="9l6tXo_ypLGHm5UJ6JUw-223" value="&lt;b&gt;&lt;font style=&quot;font-size: 24px;&quot;&gt;尾实体&lt;/font&gt;&lt;/b&gt;" style="text;whiteSpace=wrap;html=1;" vertex="1" parent="1">
          <mxGeometry x="857" y="323.1199999999999" width="80" height="40" as="geometry" />
        </mxCell>
        <mxCell id="9l6tXo_ypLGHm5UJ6JUw-224" value="&lt;b style=&quot;&quot;&gt;&lt;font style=&quot;font-size: 24px;&quot;&gt;关系&lt;/font&gt;&lt;/b&gt;" style="text;whiteSpace=wrap;html=1;" vertex="1" parent="1">
          <mxGeometry x="857.8600000000001" y="261.73" width="80" height="40" as="geometry" />
        </mxCell>
        <mxCell id="9l6tXo_ypLGHm5UJ6JUw-225" value="" style="endArrow=classic;html=1;rounded=0;strokeWidth=5;" edge="1" parent="1">
          <mxGeometry width="50" height="50" relative="1" as="geometry">
            <mxPoint x="623" y="436.1199999999999" as="sourcePoint" />
            <mxPoint x="717" y="438.1199999999999" as="targetPoint" />
          </mxGeometry>
        </mxCell>
        <mxCell id="9l6tXo_ypLGHm5UJ6JUw-226" value="&lt;font size=&quot;1&quot; style=&quot;&quot;&gt;&lt;b style=&quot;font-size: 24px;&quot;&gt;指令模板&lt;/b&gt;&lt;/font&gt;" style="whiteSpace=wrap;html=1;aspect=fixed;fillColor=none;rounded=1;" vertex="1" parent="1">
          <mxGeometry x="743.6199999999999" y="369.74999999999955" width="130.76" height="130.76" as="geometry" />
        </mxCell>
        <mxCell id="9l6tXo_ypLGHm5UJ6JUw-227" value="&lt;font size=&quot;1&quot; style=&quot;&quot; face=&quot;Helvetica&quot;&gt;&lt;b style=&quot;font-size: 24px;&quot;&gt;知识前缀适配器&lt;/b&gt;&lt;/font&gt;" style="rounded=1;whiteSpace=wrap;html=1;" vertex="1" parent="1">
          <mxGeometry x="1001" y="405" width="260" height="88.18" as="geometry" />
        </mxCell>
        <mxCell id="9l6tXo_ypLGHm5UJ6JUw-228" value="" style="ellipse;whiteSpace=wrap;html=1;" vertex="1" parent="1">
          <mxGeometry x="991" y="306.49000000000024" width="76" height="63.27" as="geometry" />
        </mxCell>
        <mxCell id="9l6tXo_ypLGHm5UJ6JUw-229" value="" style="ellipse;whiteSpace=wrap;html=1;" vertex="1" parent="1">
          <mxGeometry x="1086" y="306.48" width="76" height="63.27" as="geometry" />
        </mxCell>
        <mxCell id="9l6tXo_ypLGHm5UJ6JUw-230" value="" style="ellipse;whiteSpace=wrap;html=1;" vertex="1" parent="1">
          <mxGeometry x="1181" y="301.73" width="76" height="63.27" as="geometry" />
        </mxCell>
        <mxCell id="9l6tXo_ypLGHm5UJ6JUw-231" value="" style="ellipse;whiteSpace=wrap;html=1;" vertex="1" parent="1">
          <mxGeometry x="1284" y="299.8499999999999" width="76" height="63.27" as="geometry" />
        </mxCell>
        <mxCell id="9l6tXo_ypLGHm5UJ6JUw-232" value="" style="ellipse;whiteSpace=wrap;html=1;" vertex="1" parent="1">
          <mxGeometry x="1530" y="301.73" width="76" height="63.27" as="geometry" />
        </mxCell>
        <mxCell id="9l6tXo_ypLGHm5UJ6JUw-233" value="" style="ellipse;whiteSpace=wrap;html=1;" vertex="1" parent="1">
          <mxGeometry x="1422" y="299.8499999999999" width="76" height="63.27" as="geometry" />
        </mxCell>
        <mxCell id="9l6tXo_ypLGHm5UJ6JUw-234" value="" style="shape=curlyBracket;whiteSpace=wrap;html=1;rounded=1;flipH=1;labelPosition=right;verticalLabelPosition=middle;align=left;verticalAlign=middle;rotation=90;strokeWidth=2;" vertex="1" parent="1">
          <mxGeometry x="1435" y="260" width="20" height="290" as="geometry" />
        </mxCell>
        <mxCell id="9l6tXo_ypLGHm5UJ6JUw-235" value="&lt;font style=&quot;font-size: 30px;&quot;&gt;...&lt;/font&gt;" style="text;html=1;align=center;verticalAlign=middle;resizable=0;points=[];autosize=1;strokeColor=none;fillColor=none;" vertex="1" parent="1">
          <mxGeometry x="1365.8600000000001" y="305" width="50" height="50" as="geometry" />
        </mxCell>
        <mxCell id="9l6tXo_ypLGHm5UJ6JUw-236" value="" style="rounded=1;whiteSpace=wrap;html=1;" vertex="1" parent="1">
          <mxGeometry x="1000" y="161.63999999999987" width="601" height="86.73" as="geometry" />
        </mxCell>
        <mxCell id="9l6tXo_ypLGHm5UJ6JUw-237" value="" style="endArrow=classic;html=1;rounded=0;strokeWidth=5;" edge="1" parent="1">
          <mxGeometry width="50" height="50" relative="1" as="geometry">
            <mxPoint x="1035" y="303" as="sourcePoint" />
            <mxPoint x="1035" y="256.4899999999998" as="targetPoint" />
          </mxGeometry>
        </mxCell>
        <mxCell id="9l6tXo_ypLGHm5UJ6JUw-238" value="" style="endArrow=classic;html=1;rounded=0;strokeWidth=5;" edge="1" parent="1">
          <mxGeometry width="50" height="50" relative="1" as="geometry">
            <mxPoint x="1573" y="295" as="sourcePoint" />
            <mxPoint x="1573" y="251.8499999999999" as="targetPoint" />
          </mxGeometry>
        </mxCell>
        <mxCell id="9l6tXo_ypLGHm5UJ6JUw-239" value="&lt;font face=&quot;Helvetica&quot; style=&quot;font-size: 28px;&quot;&gt;&lt;b&gt;大语言模型&lt;/b&gt;&lt;/font&gt;" style="text;html=1;align=center;verticalAlign=middle;resizable=0;points=[];autosize=1;strokeColor=none;fillColor=none;" vertex="1" parent="1">
          <mxGeometry x="1217.26" y="179.75" width="160" height="50" as="geometry" />
        </mxCell>
        <mxCell id="9l6tXo_ypLGHm5UJ6JUw-240" value="&lt;font size=&quot;1&quot; style=&quot;&quot;&gt;&lt;b style=&quot;font-size: 24px;&quot;&gt;文本标记&lt;/b&gt;&lt;/font&gt;" style="text;html=1;align=center;verticalAlign=middle;resizable=0;points=[];autosize=1;strokeColor=none;fillColor=none;" vertex="1" parent="1">
          <mxGeometry x="1384.41" y="439.6199999999999" width="120" height="40" as="geometry" />
        </mxCell>
        <mxCell id="9l6tXo_ypLGHm5UJ6JUw-241" value="" style="endArrow=classic;html=1;rounded=0;" edge="1" source="9l6tXo_ypLGHm5UJ6JUw-227" parent="1">
          <mxGeometry width="50" height="50" relative="1" as="geometry">
            <mxPoint x="980" y="419.7600000000002" as="sourcePoint" />
            <mxPoint x="1030" y="369.7600000000002" as="targetPoint" />
          </mxGeometry>
        </mxCell>
        <mxCell id="9l6tXo_ypLGHm5UJ6JUw-242" value="" style="endArrow=classic;html=1;rounded=0;exitX=0.5;exitY=0;exitDx=0;exitDy=0;" edge="1" source="9l6tXo_ypLGHm5UJ6JUw-227" parent="1">
          <mxGeometry width="50" height="50" relative="1" as="geometry">
            <mxPoint x="1169" y="405" as="sourcePoint" />
            <mxPoint x="1131" y="370" as="targetPoint" />
          </mxGeometry>
        </mxCell>
        <mxCell id="9l6tXo_ypLGHm5UJ6JUw-243" value="" style="endArrow=classic;html=1;rounded=0;entryX=0.5;entryY=1;entryDx=0;entryDy=0;" edge="1" target="9l6tXo_ypLGHm5UJ6JUw-230" parent="1">
          <mxGeometry width="50" height="50" relative="1" as="geometry">
            <mxPoint x="1204" y="405" as="sourcePoint" />
            <mxPoint x="1234" y="360" as="targetPoint" />
          </mxGeometry>
        </mxCell>
        <mxCell id="9l6tXo_ypLGHm5UJ6JUw-244" value="&lt;font style=&quot;font-size: 18px;&quot;&gt;&lt;b&gt;标记&lt;/b&gt;&lt;/font&gt;" style="text;html=1;align=center;verticalAlign=middle;resizable=0;points=[];autosize=1;strokeColor=none;fillColor=none;" vertex="1" parent="1">
          <mxGeometry x="1292" y="313.3699999999999" width="60" height="40" as="geometry" />
        </mxCell>
        <mxCell id="9l6tXo_ypLGHm5UJ6JUw-245" value="&lt;font style=&quot;font-size: 18px;&quot;&gt;&lt;b&gt;标记&lt;/b&gt;&lt;/font&gt;" style="text;html=1;align=center;verticalAlign=middle;resizable=0;points=[];autosize=1;strokeColor=none;fillColor=none;" vertex="1" parent="1">
          <mxGeometry x="1432" y="315" width="60" height="40" as="geometry" />
        </mxCell>
        <mxCell id="9l6tXo_ypLGHm5UJ6JUw-246" value="&lt;font style=&quot;font-size: 18px;&quot;&gt;&lt;b&gt;标记&lt;/b&gt;&lt;/font&gt;" style="text;html=1;align=center;verticalAlign=middle;resizable=0;points=[];autosize=1;strokeColor=none;fillColor=none;" vertex="1" parent="1">
          <mxGeometry x="1536.41" y="313.3699999999999" width="60" height="40" as="geometry" />
        </mxCell>
        <mxCell id="9l6tXo_ypLGHm5UJ6JUw-247" value="&lt;font style=&quot;font-size: 18px;&quot;&gt;&lt;b&gt;前缀&lt;/b&gt;&lt;/font&gt;" style="text;whiteSpace=wrap;html=1;" vertex="1" parent="1">
          <mxGeometry x="1014" y="323.1199999999999" width="60" height="40" as="geometry" />
        </mxCell>
        <mxCell id="9l6tXo_ypLGHm5UJ6JUw-248" value="&lt;font style=&quot;font-size: 18px;&quot;&gt;&lt;b&gt;前缀&lt;/b&gt;&lt;/font&gt;" style="text;whiteSpace=wrap;html=1;" vertex="1" parent="1">
          <mxGeometry x="1102" y="323.1199999999999" width="60" height="40" as="geometry" />
        </mxCell>
        <mxCell id="9l6tXo_ypLGHm5UJ6JUw-249" value="&lt;font style=&quot;font-size: 18px;&quot;&gt;&lt;b&gt;前缀&lt;/b&gt;&lt;/font&gt;" style="text;whiteSpace=wrap;html=1;" vertex="1" parent="1">
          <mxGeometry x="1197" y="318.1300000000001" width="60" height="40" as="geometry" />
        </mxCell>
        <mxCell id="9l6tXo_ypLGHm5UJ6JUw-250" value="" style="endArrow=classic;html=1;rounded=0;strokeWidth=5;exitX=1;exitY=0.5;exitDx=0;exitDy=0;" edge="1" source="9l6tXo_ypLGHm5UJ6JUw-162" parent="1">
          <mxGeometry width="50" height="50" relative="1" as="geometry">
            <mxPoint x="626" y="608.1199999999999" as="sourcePoint" />
            <mxPoint x="1660" y="605" as="targetPoint" />
          </mxGeometry>
        </mxCell>
        <mxCell id="9l6tXo_ypLGHm5UJ6JUw-251" value="" style="rounded=1;whiteSpace=wrap;html=1;fillColor=none;strokeWidth=2;dashed=1;" vertex="1" parent="1">
          <mxGeometry x="350" y="145" width="1280" height="416.64" as="geometry" />
        </mxCell>
        <mxCell id="9l6tXo_ypLGHm5UJ6JUw-252" value="" style="edgeStyle=elbowEdgeStyle;elbow=vertical;endArrow=classic;html=1;curved=0;rounded=0;endSize=8;startSize=8;strokeWidth=5;" edge="1" parent="1">
          <mxGeometry width="50" height="50" relative="1" as="geometry">
            <mxPoint x="820" y="505" as="sourcePoint" />
            <mxPoint x="1430" y="485" as="targetPoint" />
            <Array as="points">
              <mxPoint x="1040" y="525" />
            </Array>
          </mxGeometry>
        </mxCell>
        <mxCell id="9l6tXo_ypLGHm5UJ6JUw-253" value="" style="rounded=1;whiteSpace=wrap;html=1;" vertex="1" parent="1">
          <mxGeometry x="1659.59" y="144.99999999999955" width="106.41" height="246.82" as="geometry" />
        </mxCell>
        <mxCell id="9l6tXo_ypLGHm5UJ6JUw-254" value="&lt;font size=&quot;1&quot; style=&quot;&quot;&gt;&lt;b style=&quot;font-size: 24px;&quot;&gt;聚类&lt;br&gt;结构&lt;br&gt;损失&lt;/b&gt;&lt;/font&gt;" style="rounded=1;whiteSpace=wrap;html=1;" vertex="1" parent="1">
          <mxGeometry x="1659.59" y="479.6199999999999" width="106.41" height="230" as="geometry" />
        </mxCell>
        <mxCell id="9l6tXo_ypLGHm5UJ6JUw-255" value="" style="rounded=1;whiteSpace=wrap;html=1;" vertex="1" parent="1">
          <mxGeometry x="1656.59" y="789.1199999999999" width="106.41" height="230" as="geometry" />
        </mxCell>
        <mxCell id="9l6tXo_ypLGHm5UJ6JUw-256" value="" style="endArrow=classic;html=1;rounded=0;strokeWidth=5;" edge="1" parent="1">
          <mxGeometry width="50" height="50" relative="1" as="geometry">
            <mxPoint x="1603" y="212.82999999999993" as="sourcePoint" />
            <mxPoint x="1660" y="213" as="targetPoint" />
          </mxGeometry>
        </mxCell>
        <mxCell id="9l6tXo_ypLGHm5UJ6JUw-257" value="" style="endArrow=classic;html=1;rounded=0;strokeWidth=5;entryX=0.001;entryY=0.636;entryDx=0;entryDy=0;entryPerimeter=0;" edge="1" target="9l6tXo_ypLGHm5UJ6JUw-255" parent="1">
          <mxGeometry width="50" height="50" relative="1" as="geometry">
            <mxPoint x="1550" y="935.3699999999999" as="sourcePoint" />
            <mxPoint x="1607" y="935.54" as="targetPoint" />
          </mxGeometry>
        </mxCell>
        <mxCell id="9l6tXo_ypLGHm5UJ6JUw-258" value="&lt;font style=&quot;font-size: 24px;&quot;&gt;&lt;b&gt;联合&lt;br&gt;损失&lt;/b&gt;&lt;/font&gt;" style="rounded=1;whiteSpace=wrap;html=1;" vertex="1" parent="1">
          <mxGeometry x="1806" y="475" width="106.41" height="243.12" as="geometry" />
        </mxCell>
        <mxCell id="9l6tXo_ypLGHm5UJ6JUw-259" value="" style="rounded=1;whiteSpace=wrap;html=1;fillColor=none;strokeWidth=2;dashed=1;" vertex="1" parent="1">
          <mxGeometry x="1643" y="135" width="290" height="900" as="geometry" />
        </mxCell>
        <mxCell id="9l6tXo_ypLGHm5UJ6JUw-260" value="" style="edgeStyle=elbowEdgeStyle;elbow=vertical;endArrow=classic;html=1;curved=0;rounded=0;endSize=8;startSize=8;strokeWidth=5;entryX=0.413;entryY=0.041;entryDx=0;entryDy=0;entryPerimeter=0;exitX=0.991;exitY=0.386;exitDx=0;exitDy=0;exitPerimeter=0;" edge="1" source="9l6tXo_ypLGHm5UJ6JUw-253" parent="1">
          <mxGeometry width="50" height="50" relative="1" as="geometry">
            <mxPoint x="1787" y="243.1600000000003" as="sourcePoint" />
            <mxPoint x="1855.53733" y="474.99792000000025" as="targetPoint" />
            <Array as="points">
              <mxPoint x="1917" y="243.1600000000003" />
            </Array>
          </mxGeometry>
        </mxCell>
        <mxCell id="9l6tXo_ypLGHm5UJ6JUw-261" value="" style="edgeStyle=elbowEdgeStyle;elbow=vertical;endArrow=classic;html=1;curved=0;rounded=0;endSize=8;startSize=8;strokeWidth=5;exitX=0.991;exitY=0.386;exitDx=0;exitDy=0;exitPerimeter=0;entryX=0.5;entryY=1;entryDx=0;entryDy=0;" edge="1" target="9l6tXo_ypLGHm5UJ6JUw-258" parent="1">
          <mxGeometry width="50" height="50" relative="1" as="geometry">
            <mxPoint x="1770.4099999999999" y="941.0999999999999" as="sourcePoint" />
            <mxPoint x="1860" y="725" as="targetPoint" />
            <Array as="points">
              <mxPoint x="1922.4099999999999" y="944.2600000000002" />
            </Array>
          </mxGeometry>
        </mxCell>
        <mxCell id="9l6tXo_ypLGHm5UJ6JUw-262" value="&lt;font style=&quot;font-size: 24px;&quot;&gt;&lt;b&gt;文本描述以及结构损失&lt;/b&gt;&lt;/font&gt;" style="text;whiteSpace=wrap;html=1;" vertex="1" parent="1">
          <mxGeometry x="1686" y="179.75" width="60" height="40" as="geometry" />
        </mxCell>
        <mxCell id="9l6tXo_ypLGHm5UJ6JUw-263" value="&lt;span style=&quot;font-size: 24px;&quot;&gt;&lt;b&gt;有向关系结构损失&lt;/b&gt;&lt;/span&gt;" style="text;whiteSpace=wrap;html=1;" vertex="1" parent="1">
          <mxGeometry x="1686" y="848.1199999999999" width="60" height="40" as="geometry" />
        </mxCell>
      </root>
    </mxGraphModel>
  </diagram>
</mxfile>
